<?xml version="1.0" encoding="utf-8"?>
<!-- Generator: Adobe Illustrator 27.5.0, SVG Export Plug-In . SVG Version: 6.00 Build 0)  -->
<svg version="1.1" id="_x31_" xmlns="http://www.w3.org/2000/svg" xmlns:xlink="http://www.w3.org/1999/xlink" x="0px" y="0px"
	 viewBox="0 0 450 450" style="enable-background:new 0 0 450 450;" xml:space="preserve">
<g>
	<g>
		<path style="fill-rule:evenodd;clip-rule:evenodd;fill:#A8783F;" d="M224.967,150.502c94.486,0,171.114,45.455,171.114,101.51
			c0,56.055-76.628,101.51-171.114,101.51c-94.488,0-171.117-45.455-171.117-101.51C53.851,195.957,130.479,150.502,224.967,150.502
			z"/>
		<g>
			<polygon style="fill:#363634;" points="186.829,412.811 185.173,401.902 183.804,401.902 182.189,412.811 180.974,401.902 
				179.431,401.902 181.306,416.134 182.923,416.134 184.533,405.628 186.054,416.134 187.713,416.134 189.394,401.902 
				187.856,401.902 			"/>
			<path style="fill:#363634;" d="M195.23,403.851c-0.541,0-0.992,0.141-1.347,0.425c-0.356,0.281-0.591,0.621-0.704,1.013v-3.541
				h-1.656v14.387h1.656v-9.333c0-0.502,0.117-0.88,0.346-1.134c0.229-0.257,0.524-0.387,0.886-0.387
				c0.663,0,0.994,0.441,0.994,1.319v9.534h1.659v-9.672c0-0.861-0.171-1.513-0.51-1.952
				C196.212,404.069,195.771,403.851,195.23,403.851z"/>
			<path style="fill:#363634;" d="M202.339,403.859l-0.089,0.002c-0.798,0.016-1.406,0.252-1.821,0.711
				c-0.549,0.596-0.826,1.661-0.826,3.193v4.284c0,1.102,0.075,1.899,0.219,2.396c0.146,0.494,0.314,0.856,0.505,1.082
				c0.193,0.226,0.453,0.408,0.779,0.546c0.294,0.125,0.674,0.195,1.144,0.207l0.156,0.001c0.544,0,0.996-0.116,1.364-0.345
				c0.367-0.228,0.64-0.601,0.82-1.12c0.182-0.516,0.273-1.419,0.273-2.708v-0.516h-1.626v0.977c0,0.243-0.003,0.541-0.008,0.895
				c-0.006,0.353-0.069,0.679-0.191,0.983c-0.122,0.301-0.361,0.453-0.723,0.453l-0.065-0.001c-0.33-0.015-0.572-0.144-0.728-0.389
				c-0.168-0.26-0.251-0.913-0.251-1.965v-2.418h0.979h2.643v-2.288c0-1.008-0.085-1.808-0.256-2.402
				C204.321,404.383,203.556,403.859,202.339,403.859z M203.236,409.001h-0.987h-0.987v-1.487c0-0.713,0.063-1.27,0.193-1.679
				c0.117-0.369,0.381-0.571,0.794-0.604c0.041-0.003,0.084-0.006,0.128-0.006c0.254,0,0.428,0.066,0.528,0.201
				c0.096,0.136,0.176,0.293,0.237,0.469c0.061,0.177,0.094,0.698,0.094,1.56V409.001z"/>
			<path style="fill:#363634;" d="M211.911,404.472c-0.378-0.408-0.994-0.612-1.838-0.612l-0.101,0.002
				c-0.799,0.019-1.416,0.26-1.856,0.723c-0.458,0.486-0.687,1.463-0.687,2.929v0.348h1.648v-0.42c0-0.831,0.063-1.405,0.188-1.722
				c0.121-0.314,0.357-0.47,0.708-0.477l0.023-0.001c0.364,0,0.621,0.105,0.773,0.315c0.149,0.21,0.227,0.837,0.227,1.877v0.936
				c-0.372,0.137-0.714,0.271-1.023,0.401c-1.121,0.472-1.83,0.9-2.127,1.285c-0.381,0.494-0.572,1.088-0.572,1.784v1.182
				c0.012,2.145,0.704,3.218,2.079,3.218c0.226,0,0.432-0.031,0.62-0.098c0.17-0.059,0.326-0.147,0.465-0.261
				c0.29-0.241,0.477-0.505,0.566-0.798v1.052h1.664v-8.256c0-0.566-0.019-1.043-0.055-1.433
				C212.523,405.54,212.291,404.883,211.911,404.472z M210.994,414.064c-0.081,0.204-0.229,0.395-0.445,0.571
				c-0.167,0.134-0.36,0.218-0.578,0.25c-0.065,0.009-0.131,0.013-0.2,0.013c-0.301,0-0.514-0.144-0.637-0.433
				c-0.124-0.288-0.185-0.787-0.185-1.493v-1.124c0-0.51,0.058-0.88,0.174-1.104c0.116-0.224,0.287-0.417,0.514-0.585
				c0.082-0.061,0.193-0.131,0.335-0.21c0.249-0.139,0.591-0.307,1.023-0.503V414.064z"/>
			<path style="fill:#363634;" d="M217.314,414.186v-8.855h1.308v-1.228h-1.308v-2.2h-1.659v2.2h-1.107v1.228h1.107v9.002
				c0,0.696,0.116,1.181,0.348,1.457c0.232,0.279,0.732,0.417,1.496,0.417h1.14v-1.316c-0.593,0-0.96-0.039-1.107-0.119
				C217.385,414.693,217.314,414.497,217.314,414.186z"/>
			<path style="fill:#363634;" d="M228.522,403.851c-0.541,0-0.991,0.141-1.347,0.425c-0.356,0.281-0.591,0.621-0.704,1.013v-3.541
				h-1.656v14.387h1.656v-9.333c0-0.502,0.116-0.88,0.346-1.134c0.229-0.257,0.524-0.387,0.886-0.387
				c0.663,0,0.994,0.441,0.994,1.319v9.534h1.659v-9.672c0-0.861-0.171-1.513-0.51-1.952
				C229.505,404.069,229.063,403.851,228.522,403.851z"/>
			<path style="fill:#363634;" d="M237.55,404.472c-0.378-0.408-0.994-0.612-1.838-0.612l-0.101,0.002
				c-0.799,0.019-1.416,0.26-1.856,0.723c-0.458,0.486-0.687,1.463-0.687,2.929v0.348h1.648v-0.42c0-0.831,0.063-1.405,0.188-1.722
				c0.121-0.314,0.357-0.47,0.708-0.477l0.023-0.001c0.364,0,0.621,0.105,0.773,0.315c0.149,0.21,0.226,0.837,0.226,1.877v0.936
				c-0.372,0.137-0.714,0.271-1.023,0.401c-1.121,0.472-1.83,0.9-2.127,1.285c-0.381,0.494-0.572,1.088-0.572,1.784v1.182
				c0.012,2.145,0.704,3.218,2.079,3.218c0.226,0,0.432-0.031,0.62-0.098c0.17-0.059,0.326-0.147,0.465-0.261
				c0.29-0.241,0.477-0.505,0.566-0.798v1.052h1.664v-8.256c0-0.566-0.019-1.043-0.055-1.433
				C238.163,405.54,237.931,404.883,237.55,404.472z M236.633,414.064c-0.081,0.204-0.229,0.395-0.445,0.571
				c-0.167,0.134-0.36,0.218-0.578,0.25c-0.065,0.009-0.131,0.013-0.2,0.013c-0.301,0-0.514-0.144-0.637-0.433
				c-0.124-0.288-0.186-0.787-0.186-1.493v-1.124c0-0.51,0.058-0.88,0.174-1.104c0.116-0.224,0.287-0.417,0.514-0.585
				c0.082-0.061,0.193-0.131,0.335-0.21c0.249-0.139,0.591-0.307,1.023-0.503V414.064z"/>
			<path style="fill:#363634;" d="M243.408,404.251c-0.353,0.262-0.599,0.629-0.739,1.104v-1.353h-1.664v12.132h1.664v-9.857
				c0.422-0.674,1.115-1.013,2.087-1.013l0.009-0.353c0-0.701-0.012-1.051-0.034-1.051
				C244.204,403.859,243.762,403.989,243.408,404.251z"/>
			<polygon style="fill:#363634;" points="248.938,410.829 248.703,413.545 248.552,413.545 248.267,410.837 247.395,404.002 
				245.849,404.002 247.572,416.134 249.52,416.134 251.259,404.002 249.722,404.002 			"/>
			<path style="fill:#363634;" d="M255.768,403.859l-0.09,0.002c-0.798,0.016-1.406,0.252-1.821,0.711
				c-0.549,0.596-0.826,1.661-0.826,3.193v4.284c0,1.102,0.075,1.899,0.219,2.396c0.146,0.494,0.315,0.856,0.505,1.082
				c0.193,0.226,0.453,0.408,0.778,0.546c0.294,0.125,0.674,0.195,1.144,0.207l0.155,0.001c0.544,0,0.997-0.116,1.364-0.345
				c0.367-0.228,0.64-0.601,0.82-1.12c0.182-0.516,0.273-1.419,0.273-2.708v-0.516h-1.626v0.977c0,0.243-0.003,0.541-0.009,0.895
				c-0.006,0.353-0.069,0.679-0.19,0.983c-0.121,0.301-0.361,0.453-0.723,0.453l-0.065-0.001c-0.33-0.015-0.571-0.144-0.728-0.389
				c-0.168-0.26-0.251-0.913-0.251-1.965v-2.418h0.979h2.643v-2.288c0-1.008-0.086-1.808-0.256-2.402
				C257.75,404.383,256.986,403.859,255.768,403.859z M256.666,409.001h-0.987h-0.987v-1.487c0-0.713,0.063-1.27,0.193-1.679
				c0.117-0.369,0.381-0.571,0.794-0.604c0.041-0.003,0.084-0.006,0.128-0.006c0.254,0,0.428,0.066,0.527,0.201
				c0.097,0.136,0.176,0.293,0.237,0.469c0.061,0.177,0.094,0.698,0.094,1.56V409.001z"/>
			<path style="fill:#363634;" d="M263.12,408.943c-0.737-0.732-1.107-1.493-1.107-2.28c0-0.499,0.083-0.855,0.251-1.065
				c0.165-0.213,0.417-0.318,0.75-0.318c0.334,0,0.572,0.174,0.707,0.522c0.138,0.348,0.207,0.875,0.207,1.582v0.842h1.576v-0.583
				c0-1.805-0.37-2.953-1.115-3.436c-0.356-0.232-0.817-0.348-1.383-0.348c-0.836,0-1.48,0.234-1.932,0.706
				c-0.453,0.472-0.679,1.187-0.679,2.148c0,1.211,0.525,2.321,1.576,3.323c0.069,0.07,0.215,0.21,0.436,0.417
				c0.221,0.207,0.362,0.339,0.423,0.4c0.809,0.792,1.211,1.629,1.211,2.506c0,0.561-0.077,0.956-0.228,1.182
				c-0.155,0.226-0.406,0.339-0.757,0.339c-0.637,0-0.955-0.701-0.955-2.103v-0.905h-1.609v0.913c0,1.229,0.218,2.123,0.654,2.678
				c0.436,0.555,1.093,0.834,1.965,0.834c1.725,0,2.592-0.983,2.598-2.945c0-1.3-0.572-2.496-1.715-3.592L263.12,408.943z"/>
			<path style="fill:#363634;" d="M269.981,414.77c-0.147-0.077-0.218-0.273-0.218-0.585v-8.855h1.308v-1.228h-1.308v-2.2h-1.659
				v2.2h-1.107v1.228h1.107v9.002c0,0.696,0.116,1.181,0.348,1.457c0.232,0.279,0.732,0.417,1.496,0.417h1.14v-1.316
				C270.495,414.89,270.127,414.851,269.981,414.77z"/>
		</g>
	</g>
	<g>
		<g>
			<g>
				<path style="opacity:0.5;fill-rule:evenodd;clip-rule:evenodd;fill:#8E6C43;" d="M389.681,192.554l-65.511,38.093
					c3.765-2.935,7.191-6.224,10.403-9.998l-8.458-5.721l30.948-17.73l-56.159-32.754l-26.748,15.338l-67.86-45.902
					c-1.183-0.8-2.662-0.717-3.903-0.002l-60.364,33.872l76.024,44.204l-26.248,15.051l49.663,28.936
					c4.142,2.413,8.903,2.416,13.048,0.006l19.744-11.311l8.239,4.791c9.001-2.604,16.706-5.23,23.451-8.184l-92.684,53.893
					l35.496,20.494L425.15,213.068L389.681,192.554z"/>
				<polygon style="fill-rule:evenodd;clip-rule:evenodd;fill:#A88B50;" points="123.559,165.001 148.237,179.25 170.782,166.267 
					146.123,152.005 				"/>
			</g>
			<g>
				<g>
					<path style="fill-rule:evenodd;clip-rule:evenodd;fill:#161713;" d="M278.049,136.617L316.8,201.32l25.787-14.494
						c25.868-14.633-12.689-80.248-38.409-65.347L278.049,136.617z"/>
					<g>
						<path style="fill-rule:evenodd;clip-rule:evenodd;fill:#363634;" d="M280.876,141.338L280.876,141.338l37.209-21.102
							c-3.679-1.157-7.361-1.289-10.874-0.117l-29.161,16.499L280.876,141.338z"/>
						<path style="fill-rule:evenodd;clip-rule:evenodd;fill:#363634;" d="M286.016,149.921l42.285-23.984
							c-2.021-1.609-4.099-2.979-6.201-4.048l-39.595,22.169L286.016,149.921z"/>
						<path style="fill-rule:evenodd;clip-rule:evenodd;fill:#363634;" d="M287.929,153.113l6.31,3.641l41.498-23.537
							c-1.498-1.76-3.065-3.406-4.682-4.907l-43.421,24.312L287.929,153.113z"/>
						<path style="fill-rule:evenodd;clip-rule:evenodd;fill:#363634;" d="M293.852,160.676l6.89,3.973l40.972-23.238
							c-1.172-1.877-2.428-3.696-3.752-5.431L293.852,160.676z"/>
						<path style="fill-rule:evenodd;clip-rule:evenodd;fill:#363634;" d="M300.577,168.076l6.889,3.973l38.842-22.03
							c-0.892-1.989-1.888-3.957-2.975-5.882L300.577,168.076z"/>
						<path style="fill-rule:evenodd;clip-rule:evenodd;fill:#363634;" d="M306.345,176.285l6.889,3.973l36.473-20.686
							c-0.552-2.119-1.251-4.262-2.08-6.4L306.345,176.285z"/>
						<path style="fill-rule:evenodd;clip-rule:evenodd;fill:#363634;" d="M310.817,191.33l1.648,0.952l38.667-21.931
							c0.027-1.776-0.098-3.618-0.359-5.504c-0.041-0.294-0.083-0.587-0.131-0.883l-0.054-0.331
							c-0.027-0.158-0.059-0.318-0.088-0.477l-42.354,23.713L310.817,191.33z"/>
						<path style="fill-rule:evenodd;clip-rule:evenodd;fill:#363634;" d="M316.642,201.057l28.933-16.411
							c0.208-0.191,0.409-0.387,0.604-0.588l0.131-0.135c2.487-2.619,3.94-5.994,4.527-9.829l-37.701,21.108L316.642,201.057z"/>
					</g>
					<path style="fill-rule:evenodd;clip-rule:evenodd;fill:#161713;" d="M296.909,138.44c14.816,8.44,26.827,29.097,26.827,46.127
						c0,17.041-12.011,24.014-26.827,15.574c-14.807-8.435-26.819-29.091-26.819-46.132
						C270.09,136.978,282.102,130.005,296.909,138.44z"/>
					<path style="fill-rule:evenodd;clip-rule:evenodd;fill:#7C7EA3;" d="M296.91,147.706c10.366,5.905,18.77,20.358,18.77,32.273
						c0,11.923-8.404,16.801-18.77,10.896c-10.359-5.901-18.763-20.354-18.763-32.277
						C278.147,146.684,286.551,141.805,296.91,147.706z"/>
					<path style="fill-rule:evenodd;clip-rule:evenodd;fill:#9395BA;" d="M295.153,154.281c7.885,4.491,14.277,15.484,14.277,24.547
						c0,9.068-6.392,12.78-14.277,8.288c-7.88-4.488-14.272-15.482-14.272-24.551C280.881,153.503,287.273,149.792,295.153,154.281z
						"/>
					<g>
						<path style="fill-rule:evenodd;clip-rule:evenodd;fill:#363634;" d="M294.45,163.628c3.607,2.055,6.532,7.084,6.532,11.231
							c0,4.149-2.925,5.846-6.532,3.792c-3.605-2.054-6.53-7.083-6.53-11.232C287.921,163.272,290.845,161.574,294.45,163.628z"/>
						<path style="fill-rule:evenodd;clip-rule:evenodd;fill:#EDA705;" d="M299.612,178.681c-1.103,0.351-2.484,0.147-3.986-0.708
							c-3.606-2.054-6.529-7.084-6.529-11.232c0-1.734,0.512-3.037,1.37-3.82c1.102-0.35,2.483-0.146,3.982,0.708
							c3.61,2.054,6.533,7.084,6.533,11.23C300.983,176.593,300.47,177.897,299.612,178.681z"/>
					</g>
				</g>
				<path style="fill-rule:evenodd;clip-rule:evenodd;fill:#7D870B;" d="M278.294,121.456c12.895,7.457,40.884,29.19,45.014,26.815
					l22.378-12.874c1.376-0.791,2.161-2.156,2.162-3.742v-2.299h-0.643c-0.365-0.583-0.876-1.075-1.516-1.445l-69.29-40.064
					L278.294,121.456z"/>
				<path style="fill-rule:evenodd;clip-rule:evenodd;fill:#9FAA20;" d="M278.303,119.476c12.894,7.456,40.884,29.19,45.015,26.814
					l22.377-12.874c1.375-0.792,2.161-2.156,2.162-3.743c0-1.587-0.786-2.95-2.16-3.744l-69.289-40.064L278.303,119.476z"/>
				<polygon style="fill-rule:evenodd;clip-rule:evenodd;fill:#181914;" points="148.082,126.063 277.401,199.671 277.362,216.383 
					148.082,142.459 				"/>
				<polygon style="fill-rule:evenodd;clip-rule:evenodd;fill:#A39A8F;" points="138.656,116.738 238.854,173.683 252.228,192.916 
					141.06,129.073 				"/>
				<g>
					<path style="fill-rule:evenodd;clip-rule:evenodd;fill:#161713;" d="M131.156,144.054L148.6,173.18l11.607-6.524
						c11.645-6.587-5.711-36.124-17.289-29.416L131.156,144.054z"/>
					<g>
						<path style="fill-rule:evenodd;clip-rule:evenodd;fill:#363634;" d="M132.428,146.18L132.428,146.18l16.75-9.499
							c-1.656-0.521-3.314-0.58-4.895-0.053l-13.127,7.427L132.428,146.18z"/>
						<path style="fill-rule:evenodd;clip-rule:evenodd;fill:#363634;" d="M134.743,150.043l19.035-10.796
							c-0.91-0.724-1.845-1.341-2.792-1.822l-17.824,9.979L134.743,150.043z"/>
						<path style="fill-rule:evenodd;clip-rule:evenodd;fill:#363634;" d="M135.604,151.48l2.841,1.639l18.68-10.595
							c-0.674-0.792-1.379-1.533-2.107-2.209l-19.546,10.944L135.604,151.48z"/>
						<path style="fill-rule:evenodd;clip-rule:evenodd;fill:#363634;" d="M138.27,154.884l3.101,1.788l18.444-10.461
							c-0.528-0.845-1.093-1.663-1.689-2.445L138.27,154.884z"/>
						<path style="fill-rule:evenodd;clip-rule:evenodd;fill:#363634;" d="M141.297,158.215l3.101,1.789l17.485-9.918
							c-0.401-0.895-0.849-1.781-1.339-2.647L141.297,158.215z"/>
						<path style="fill-rule:evenodd;clip-rule:evenodd;fill:#363634;" d="M143.893,161.911l3.101,1.789l16.418-9.312
							c-0.249-0.954-0.563-1.919-0.936-2.881L143.893,161.911z"/>
						<path style="fill-rule:evenodd;clip-rule:evenodd;fill:#363634;" d="M145.906,168.683l0.742,0.429l17.406-9.872
							c0.012-0.799-0.045-1.628-0.162-2.478c-0.018-0.132-0.038-0.264-0.059-0.397l-0.024-0.149
							c-0.012-0.071-0.027-0.143-0.04-0.214l-19.066,10.674L145.906,168.683z"/>
						<path style="fill-rule:evenodd;clip-rule:evenodd;fill:#363634;" d="M148.529,173.061l13.024-7.387
							c0.094-0.086,0.184-0.174,0.272-0.264l0.059-0.061c1.119-1.179,1.774-2.698,2.038-4.424l-16.971,9.502L148.529,173.061z"/>
					</g>
					<path style="fill-rule:evenodd;clip-rule:evenodd;fill:#161713;" d="M139.646,144.875c6.67,3.799,12.077,13.098,12.077,20.764
						c0,7.671-5.407,10.81-12.077,7.011c-6.665-3.797-12.072-13.096-12.072-20.767C127.573,144.217,132.98,141.078,139.646,144.875z
						"/>
					<path style="fill-rule:evenodd;clip-rule:evenodd;fill:#BCB5AD;" d="M139.646,149.046c4.666,2.658,8.449,9.164,8.449,14.527
						c0,5.367-3.783,7.563-8.449,4.905c-4.663-2.656-8.446-9.162-8.446-14.529C131.2,148.586,134.983,146.389,139.646,149.046z"/>
					<path style="fill-rule:evenodd;clip-rule:evenodd;fill:#7D870B;" d="M138.855,152.006c3.549,2.022,6.427,6.97,6.427,11.05
						c0,4.082-2.878,5.753-6.427,3.731c-3.547-2.021-6.425-6.969-6.425-11.052C132.431,151.656,135.308,149.985,138.855,152.006z"/>
					<g>
						<path style="fill-rule:evenodd;clip-rule:evenodd;fill:#363634;" d="M138.539,156.213c1.624,0.925,2.941,3.189,2.941,5.056
							c0,1.868-1.317,2.632-2.941,1.707c-1.623-0.924-2.939-3.188-2.939-5.056C135.6,156.053,136.916,155.289,138.539,156.213z"/>
						<path style="fill-rule:evenodd;clip-rule:evenodd;fill:#BCB5AD;" d="M140.863,162.989c-0.497,0.158-1.118,0.067-1.795-0.319
							c-1.623-0.924-2.939-3.188-2.939-5.056c0-0.781,0.23-1.367,0.617-1.719c0.496-0.158,1.118-0.066,1.793,0.319
							c1.625,0.924,2.941,3.189,2.941,5.055C141.479,162.049,141.249,162.636,140.863,162.989z"/>
					</g>
				</g>
				<path style="fill-rule:evenodd;clip-rule:evenodd;fill:#181914;" d="M332.158,208.604c0-6.434-0.048-17.371-0.65-26.258
					l-0.001-0.007l-50.151,31.143l-0.004,1.068c0.57,8.679,0.575,16.765,0.575,23.07
					C299.643,231.991,322.134,219.439,332.158,208.604z"/>
				<g>
					<path style="fill-rule:evenodd;clip-rule:evenodd;fill:#161713;" d="M192.293,81.306l38.607,64.462l25.69-14.441
						c25.772-14.578-12.641-79.948-38.265-65.104L192.293,81.306z"/>
					<g>
						<path style="fill-rule:evenodd;clip-rule:evenodd;fill:#363634;" d="M195.11,86.01L195.11,86.01l37.07-21.024
							c-3.665-1.152-7.334-1.284-10.833-0.117l-29.053,16.438L195.11,86.01z"/>
						<path style="fill-rule:evenodd;clip-rule:evenodd;fill:#363634;" d="M200.232,94.56l42.127-23.894
							c-2.013-1.603-4.084-2.968-6.178-4.033l-39.448,22.086L200.232,94.56z"/>
						<path style="fill-rule:evenodd;clip-rule:evenodd;fill:#363634;" d="M202.137,97.741l6.287,3.627l41.343-23.45
							c-1.492-1.753-3.053-3.393-4.664-4.888l-43.26,24.221L202.137,97.741z"/>
						<path style="fill-rule:evenodd;clip-rule:evenodd;fill:#363634;" d="M208.037,105.275l6.864,3.959l40.82-23.152
							c-1.168-1.87-2.419-3.681-3.738-5.41L208.037,105.275z"/>
						<path style="fill-rule:evenodd;clip-rule:evenodd;fill:#363634;" d="M214.737,112.648l6.864,3.959l38.697-21.948
							c-0.888-1.981-1.881-3.943-2.964-5.86L214.737,112.648z"/>
						<path style="fill-rule:evenodd;clip-rule:evenodd;fill:#363634;" d="M220.484,120.826l6.864,3.959l36.336-20.609
							c-0.549-2.111-1.246-4.246-2.072-6.376L220.484,120.826z"/>
						<path style="fill-rule:evenodd;clip-rule:evenodd;fill:#363634;" d="M224.939,135.815l1.642,0.948l38.523-21.849
							c0.027-1.769-0.098-3.604-0.357-5.483c-0.041-0.293-0.083-0.585-0.131-0.879l-0.054-0.33
							c-0.027-0.158-0.059-0.317-0.088-0.475l-42.197,23.624L224.939,135.815z"/>
						<path style="fill-rule:evenodd;clip-rule:evenodd;fill:#363634;" d="M230.743,145.506l28.825-16.35
							c0.208-0.191,0.408-0.386,0.602-0.586l0.13-0.135c2.477-2.608,3.925-5.971,4.51-9.792l-37.56,21.029L230.743,145.506z"/>
					</g>
					<path style="fill-rule:evenodd;clip-rule:evenodd;fill:#161713;" d="M211.083,83.122c14.762,8.408,26.729,28.989,26.729,45.955
						c0,16.977-11.967,23.924-26.729,15.515c-14.751-8.402-26.718-28.982-26.718-45.96
						C184.365,81.666,196.331,74.719,211.083,83.122z"/>
					<path style="fill-rule:evenodd;clip-rule:evenodd;fill:#363634;" d="M211.084,92.354c10.327,5.883,18.7,20.281,18.7,32.152
						c0,11.879-8.372,16.739-18.7,10.856c-10.321-5.879-18.693-20.278-18.693-32.156C192.391,91.335,200.763,86.475,211.084,92.354z
						"/>
					<path style="fill-rule:evenodd;clip-rule:evenodd;fill:#7C7EA3;" d="M225.97,135.345c-3.133,0.941-7.035,0.337-11.267-2.073
						c-10.321-5.878-18.692-20.277-18.692-32.156c0-4.887,1.422-8.585,3.811-10.835c3.133-0.94,7.032-0.336,11.26,2.074
						c10.33,5.882,18.701,20.279,18.701,32.151C229.782,129.397,228.361,133.094,225.97,135.345z"/>
					<path style="fill-rule:evenodd;clip-rule:evenodd;fill:#363634;" d="M214.584,102.26c4.549,2.592,8.237,8.933,8.237,14.162
						c0,5.232-3.688,7.373-8.237,4.782c-4.546-2.59-8.234-8.932-8.234-14.165C206.351,101.811,210.039,99.67,214.584,102.26z"/>
					<path style="fill-rule:evenodd;clip-rule:evenodd;fill:#EDA705;" d="M221.094,121.242c-1.391,0.443-3.133,0.186-5.027-0.893
						c-4.546-2.59-8.232-8.933-8.232-14.164c0-2.187,0.645-3.83,1.728-4.816c1.39-0.442,3.13-0.184,5.021,0.893
						c4.552,2.59,8.238,8.932,8.238,14.161C222.822,118.61,222.176,120.254,221.094,121.242z"/>
				</g>
				<path style="fill-rule:evenodd;clip-rule:evenodd;fill:#E39400;" d="M200.155,76.06c17.423,1.355,28.378,13.198,35.028,25.352
					c2.339,4.275,7.741,5.743,11.908,3.338l15.104-8.719c1.538-0.888,1.858-2.401,1.632-4.163
					c-1.61-12.529-27.518-33.767-44.981-31.802l-19.424,11.216c-0.502,0.289-0.853,0.721-1.063,1.206h-0.233l0.009,1.391
					C198.143,74.974,198.917,75.964,200.155,76.06z"/>
				<path style="fill-rule:evenodd;clip-rule:evenodd;fill:#FFCC00;" d="M200.155,75.008c17.422,1.355,28.377,13.198,35.027,25.352
					c2.339,4.275,7.741,5.743,11.908,3.338l14.579-8.415c1.764-1.018,2.569-3.059,1.973-5.008
					c-4.731-15.49-20.552-33.988-44.797-31.261L199.422,70.23C197.411,71.392,197.8,74.826,200.155,75.008z"/>
				<path style="fill-rule:evenodd;clip-rule:evenodd;fill:#F1ECE6;" d="M144.161,65.797l86.199,47.411l50.125-29.058
					l-81.261-46.799c-1.357-0.782-2.907-0.789-4.274-0.023L144.161,65.797z"/>
				<path style="fill-rule:evenodd;clip-rule:evenodd;fill:#BCB5AD;" d="M205.749,99l24.612,14.208l11.263,66.19l-2.769-3.983
					l-33.105-18.8V99L205.749,99z M205.749,161.368l39.184,22.636l-0.058-0.283l-39.126-22.472V161.368z M148.355,65.867L205.749,99
					v57.615l-70.969-40.304l-2.46-14.492l9.55-32.208c0.452-1.522,0.787-2.951,2.161-3.744
					C145.407,65.074,146.981,65.074,148.355,65.867L148.355,65.867z M205.749,161.248l-35.874-20.604l35.874,20.724V161.248z"/>
				<path style="fill-rule:evenodd;clip-rule:evenodd;fill:#7D870B;" d="M281.927,237.619c0-22.274,1.996-93.245-22.909-107.728
					l-28.7-16.691c-17.856-1.976-28.612,2.617-28.991,16.815c10.889,6.592,65.22,65.7,63.906,97.961L281.927,237.619z"/>
				<polygon style="fill-rule:evenodd;clip-rule:evenodd;fill:#9FAA20;" points="133.303,93.729 203.199,136.13 206.609,132.51 
					135.441,91.296 				"/>
				<g>
					<polygon style="fill-rule:evenodd;clip-rule:evenodd;fill:#333333;" points="224.685,105.141 224.685,101.714 158.374,63.37 
						158.372,66.841 					"/>
					<polygon style="fill-rule:evenodd;clip-rule:evenodd;fill:#181914;" points="224.686,105.141 224.686,101.715 265.493,78.159 
						265.493,81.581 					"/>
					<polygon style="fill-rule:evenodd;clip-rule:evenodd;fill:#666666;" points="158.375,63.37 224.686,101.715 265.493,78.159 
						199.201,39.799 					"/>
					<g>
						<polygon style="fill-rule:evenodd;clip-rule:evenodd;fill:#41435E;" points="163.277,63.282 170.083,67.218 206.1,46.409 
							199.309,42.461 						"/>
						<polygon style="fill-rule:evenodd;clip-rule:evenodd;fill:#41435E;" points="172.388,68.55 179.195,72.487 215.212,51.678 
							208.42,47.729 						"/>
						<polygon style="fill-rule:evenodd;clip-rule:evenodd;fill:#41435E;" points="181.499,73.819 188.307,77.755 224.323,56.946 
							217.532,52.997 						"/>
						<polygon style="fill-rule:evenodd;clip-rule:evenodd;fill:#41435E;" points="190.611,79.087 197.418,83.023 233.434,62.214 
							226.643,58.266 						"/>
						<polygon style="fill-rule:evenodd;clip-rule:evenodd;fill:#41435E;" points="199.723,84.355 206.529,88.292 242.546,67.483 
							235.754,63.534 						"/>
						<polygon style="fill-rule:evenodd;clip-rule:evenodd;fill:#41435E;" points="208.834,89.624 215.64,93.56 251.657,72.751 
							244.866,68.802 						"/>
						<polygon style="fill-rule:evenodd;clip-rule:evenodd;fill:#41435E;" points="217.945,94.892 224.752,98.828 260.768,78.019 
							253.977,74.07 						"/>
					</g>
				</g>
				<polygon style="fill-rule:evenodd;clip-rule:evenodd;fill:#7D870B;" points="133.303,93.729 203.57,134.273 213.33,151.58 
					130.757,102.314 				"/>
				<polygon style="fill-rule:evenodd;clip-rule:evenodd;fill:#9FAA20;" points="230.317,113.2 259.017,129.891 309.379,100.832 
					280.485,84.15 				"/>
				<g>
					<polygon style="fill-rule:evenodd;clip-rule:evenodd;fill:#8B9615;" points="268.716,124.595 265.81,121.427 276.564,115.201 
						279.466,118.367 					"/>
					<polygon style="fill-rule:evenodd;clip-rule:evenodd;fill:#7D870B;" points="229.673,98.843 265.81,121.427 268.716,124.595 
						229.666,102.216 					"/>
					<polygon style="fill-rule:evenodd;clip-rule:evenodd;fill:#9FAA20;" points="229.673,98.843 265.81,121.427 276.564,115.201 
						240.438,92.608 					"/>
				</g>
				<g>
					<polygon style="fill-rule:evenodd;clip-rule:evenodd;fill:#8B9615;" points="289.633,112.401 286.727,109.233 297.481,103.007 
						300.384,106.172 					"/>
					<polygon style="fill-rule:evenodd;clip-rule:evenodd;fill:#7D870B;" points="250.59,86.648 286.727,109.233 289.633,112.4 
						250.583,90.021 					"/>
					<polygon style="fill-rule:evenodd;clip-rule:evenodd;fill:#9FAA20;" points="250.59,86.648 286.727,109.233 297.481,103.007 
						261.355,80.414 					"/>
				</g>
				<path style="fill-rule:evenodd;clip-rule:evenodd;fill:#8B9615;" d="M331.606,184.408c-1.422-20.999-6.253-72.544-22.324-83.519
					l-50.265,29.002c16.218,11.119,20.956,62.462,22.339,83.59L331.606,184.408z"/>
				<path style="fill-rule:evenodd;clip-rule:evenodd;fill:#363634;" d="M331.606,184.408c-0.273-4.031-0.671-9.189-1.25-14.969
					l-50.206,29.21c0.56,5.712,0.944,10.818,1.206,14.831L331.606,184.408z"/>
				<path style="fill-rule:evenodd;clip-rule:evenodd;fill:#666666;" d="M259.017,129.891c7.23,4.957,12.177,18.132,15.564,33.082
					l5.992-3.457c1.676-0.968,2.489-2.843,2.05-4.728c-3.216-13.77-7.767-25.528-14.086-30.389L259.017,129.891z"/>
				<path style="fill-rule:evenodd;clip-rule:evenodd;fill:#666666;" d="M300.261,106.224c6.745,4.585,11.626,16.205,15.147,29.757
					c0.211,0.811,0.739,1.419,1.513,1.742c0.773,0.322,1.577,0.269,2.301-0.152l5.696-3.311c-3.433-15.1-8.347-28.302-15.207-33.528
					L300.261,106.224z"/>
				<path style="fill-rule:evenodd;clip-rule:evenodd;fill:#333333;" d="M274.227,161.447l4.446-2.565
					c1.685-0.972,2.497-2.863,2.043-4.754c-3.078-12.824-7.728-23.655-13.482-28.979l-8.219,4.742
					C265.222,135.231,270.853,147.132,274.227,161.447z"/>
				<g>
					<path style="fill-rule:evenodd;clip-rule:evenodd;fill:#7F7F7F;" d="M266.888,127.651c-1.704,0.971-3.085,3.346-3.085,5.305
						c0,1.96,1.382,2.762,3.085,1.791c1.703-0.97,3.085-3.346,3.085-5.306C269.972,127.483,268.591,126.682,266.888,127.651z"/>
					<linearGradient id="SVGID_1_" gradientUnits="userSpaceOnUse" x1="264.9693" y1="135.2477" x2="269.5792" y2="127.5757">
						<stop  offset="0" style="stop-color:#B2B2B2"/>
						<stop  offset="1" style="stop-color:#FFFFFF"/>
					</linearGradient>
					<path style="fill-rule:evenodd;clip-rule:evenodd;fill:url(#SVGID_1_);" d="M267.274,127.864
						c-1.704,0.971-3.085,3.346-3.085,5.305c0,1.96,1.381,2.762,3.085,1.792c1.703-0.971,3.084-3.346,3.084-5.306
						C270.358,127.696,268.977,126.894,267.274,127.864z"/>
					
						<linearGradient id="SVGID_00000104693347910536670740000013924538841922851771_" gradientUnits="userSpaceOnUse" x1="269.0609" y1="128.3171" x2="265.4866" y2="134.5078">
						<stop  offset="0" style="stop-color:#B2B2B2"/>
						<stop  offset="1" style="stop-color:#FFFFFF"/>
					</linearGradient>
					<path style="fill-rule:evenodd;clip-rule:evenodd;fill:url(#SVGID_00000104693347910536670740000013924538841922851771_);" d="
						M267.274,128.579c-1.361,0.775-2.464,2.673-2.464,4.237c0,1.565,1.103,2.205,2.464,1.43c1.36-0.775,2.463-2.672,2.463-4.237
						C269.737,128.445,268.634,127.804,267.274,128.579z"/>
					<path style="fill-rule:evenodd;clip-rule:evenodd;fill:#FFFFFF;" d="M266.333,129.934c-0.449,0.255-0.812,0.88-0.812,1.395
						c0,0.516,0.363,0.727,0.812,0.471c0.447-0.255,0.811-0.88,0.811-1.396C267.144,129.889,266.78,129.679,266.333,129.934z"/>
				</g>
				<g>
					<path style="fill-rule:evenodd;clip-rule:evenodd;fill:#7F7F7F;" d="M271.082,135.037c-1.704,0.97-3.085,3.346-3.085,5.305
						c0,1.96,1.382,2.762,3.085,1.792c1.703-0.971,3.085-3.346,3.085-5.306C274.167,134.869,272.785,134.067,271.082,135.037z"/>
					
						<linearGradient id="SVGID_00000021836330214742909610000011306904295316660634_" gradientUnits="userSpaceOnUse" x1="269.1635" y1="142.6331" x2="273.7729" y2="134.9618">
						<stop  offset="0" style="stop-color:#B2B2B2"/>
						<stop  offset="1" style="stop-color:#FFFFFF"/>
					</linearGradient>
					<path style="fill-rule:evenodd;clip-rule:evenodd;fill:url(#SVGID_00000021836330214742909610000011306904295316660634_);" d="
						M271.468,135.25c-1.704,0.971-3.085,3.346-3.085,5.305c0,1.96,1.381,2.762,3.085,1.792c1.703-0.971,3.084-3.346,3.084-5.306
						C274.552,135.081,273.172,134.28,271.468,135.25z"/>
					
						<linearGradient id="SVGID_00000101802479470249557510000008638783707274608518_" gradientUnits="userSpaceOnUse" x1="273.2551" y1="135.7023" x2="269.6808" y2="141.8932">
						<stop  offset="0" style="stop-color:#B2B2B2"/>
						<stop  offset="1" style="stop-color:#FFFFFF"/>
					</linearGradient>
					<path style="fill-rule:evenodd;clip-rule:evenodd;fill:url(#SVGID_00000101802479470249557510000008638783707274608518_);" d="
						M271.468,135.964c-1.361,0.775-2.464,2.672-2.464,4.237c0,1.565,1.103,2.205,2.464,1.43c1.36-0.775,2.463-2.672,2.463-4.238
						C273.932,135.83,272.828,135.189,271.468,135.964z"/>
					<path style="fill-rule:evenodd;clip-rule:evenodd;fill:#FFFFFF;" d="M270.527,137.319c-0.449,0.255-0.812,0.88-0.812,1.395
						c0,0.516,0.363,0.727,0.812,0.471c0.448-0.256,0.811-0.88,0.811-1.396C271.338,137.275,270.975,137.064,270.527,137.319z"/>
				</g>
				<g>
					<path style="fill-rule:evenodd;clip-rule:evenodd;fill:#7F7F7F;" d="M274.05,142.836c-1.704,0.97-3.086,3.346-3.086,5.305
						c0,1.96,1.382,2.762,3.086,1.791c1.702-0.97,3.084-3.346,3.084-5.305C277.134,142.668,275.753,141.866,274.05,142.836z"/>
					
						<linearGradient id="SVGID_00000054243265198820018830000017705098798241146249_" gradientUnits="userSpaceOnUse" x1="272.1316" y1="150.4316" x2="276.7418" y2="142.759">
						<stop  offset="0" style="stop-color:#B2B2B2"/>
						<stop  offset="1" style="stop-color:#FFFFFF"/>
					</linearGradient>
					<path style="fill-rule:evenodd;clip-rule:evenodd;fill:url(#SVGID_00000054243265198820018830000017705098798241146249_);" d="
						M274.437,143.048c-1.704,0.971-3.086,3.347-3.086,5.305c0,1.96,1.382,2.762,3.086,1.791c1.703-0.97,3.084-3.346,3.084-5.305
						C277.521,142.88,276.139,142.078,274.437,143.048z"/>
					
						<linearGradient id="SVGID_00000108307013487082830740000000877324892666926495_" gradientUnits="userSpaceOnUse" x1="276.1688" y1="143.4706" x2="272.7038" y2="149.7216">
						<stop  offset="0" style="stop-color:#B2B2B2"/>
						<stop  offset="1" style="stop-color:#FFFFFF"/>
					</linearGradient>
					<path style="fill-rule:evenodd;clip-rule:evenodd;fill:url(#SVGID_00000108307013487082830740000000877324892666926495_);" d="
						M274.436,143.763c-1.361,0.775-2.464,2.672-2.464,4.237c0,1.565,1.103,2.206,2.464,1.431c1.36-0.775,2.464-2.672,2.464-4.238
						C276.9,143.628,275.797,142.988,274.436,143.763z"/>
					<path style="fill-rule:evenodd;clip-rule:evenodd;fill:#FFFFFF;" d="M273.495,145.117c-0.448,0.255-0.811,0.88-0.811,1.396
						c0,0.516,0.363,0.727,0.811,0.472c0.448-0.255,0.811-0.88,0.811-1.396C274.306,145.074,273.943,144.863,273.495,145.117z"/>
				</g>
				<g>
					<path style="fill-rule:evenodd;clip-rule:evenodd;fill:#7F7F7F;" d="M276.399,150.757c-1.703,0.97-3.085,3.346-3.085,5.305
						c0,1.96,1.382,2.762,3.085,1.791c1.703-0.97,3.085-3.346,3.085-5.305C279.484,150.589,278.103,149.787,276.399,150.757z"/>
					
						<linearGradient id="SVGID_00000173853143348421837750000012137085007954166699_" gradientUnits="userSpaceOnUse" x1="274.481" y1="158.3535" x2="279.0902" y2="150.6824">
						<stop  offset="0" style="stop-color:#B2B2B2"/>
						<stop  offset="1" style="stop-color:#FFFFFF"/>
					</linearGradient>
					<path style="fill-rule:evenodd;clip-rule:evenodd;fill:url(#SVGID_00000173853143348421837750000012137085007954166699_);" d="
						M276.786,150.97c-1.704,0.97-3.085,3.346-3.085,5.305c0,1.96,1.381,2.762,3.085,1.791c1.703-0.97,3.084-3.346,3.084-5.305
						C279.87,150.802,278.489,150,276.786,150.97z"/>
					
						<linearGradient id="SVGID_00000117673369364226042440000001049889271344597417_" gradientUnits="userSpaceOnUse" x1="278.5726" y1="151.4228" x2="274.9982" y2="157.6138">
						<stop  offset="0" style="stop-color:#B2B2B2"/>
						<stop  offset="1" style="stop-color:#FFFFFF"/>
					</linearGradient>
					<path style="fill-rule:evenodd;clip-rule:evenodd;fill:url(#SVGID_00000117673369364226042440000001049889271344597417_);" d="
						M276.786,151.685c-1.361,0.775-2.464,2.672-2.464,4.237c0,1.565,1.103,2.205,2.464,1.43c1.36-0.774,2.463-2.672,2.463-4.237
						C279.249,151.55,278.146,150.91,276.786,151.685z"/>
					<path style="fill-rule:evenodd;clip-rule:evenodd;fill:#FFFFFF;" d="M275.844,153.039c-0.448,0.255-0.812,0.88-0.812,1.396
						c0,0.515,0.363,0.726,0.812,0.472c0.448-0.255,0.811-0.88,0.811-1.396C276.656,152.995,276.292,152.785,275.844,153.039z"/>
				</g>
				<path style="fill-rule:evenodd;clip-rule:evenodd;fill:#333333;" d="M315.817,136.864c0.53,0.055,1.059-0.06,1.55-0.346
					l5.696-3.311c-3.141-13.819-8.643-26.813-14.735-31.672l-8.068,4.689c6.745,4.585,11.626,16.205,15.148,29.757
					C315.494,136.311,315.632,136.606,315.817,136.864z"/>
				<g>
					<g>
						<path style="fill-rule:evenodd;clip-rule:evenodd;fill:#7F7F7F;" d="M308.794,103.861c-1.692,0.971-3.044,3.347-3.02,5.305
							c0.025,1.96,1.416,2.761,3.108,1.791c1.691-0.97,3.043-3.346,3.018-5.305C311.876,103.693,310.484,102.891,308.794,103.861z"
							/>
						
							<linearGradient id="SVGID_00000018948049657890230220000014178729080091285915_" gradientUnits="userSpaceOnUse" x1="306.9972" y1="111.4836" x2="311.4567" y2="103.7595">
							<stop  offset="0" style="stop-color:#B2B2B2"/>
							<stop  offset="1" style="stop-color:#FFFFFF"/>
						</linearGradient>
						
							<path style="fill-rule:evenodd;clip-rule:evenodd;fill:url(#SVGID_00000018948049657890230220000014178729080091285915_);" d="
							M309.183,104.074c-1.692,0.971-3.043,3.346-3.019,5.305c0.024,1.96,1.416,2.761,3.107,1.791
							c1.691-0.97,3.043-3.346,3.019-5.305C312.265,103.906,310.873,103.104,309.183,104.074z"/>
						
							<linearGradient id="SVGID_00000181073680133037022010000017631087248132040632_" gradientUnits="userSpaceOnUse" x1="310.9531" y1="104.507" x2="307.4995" y2="110.7374">
							<stop  offset="0" style="stop-color:#B2B2B2"/>
							<stop  offset="1" style="stop-color:#FFFFFF"/>
						</linearGradient>
						
							<path style="fill-rule:evenodd;clip-rule:evenodd;fill:url(#SVGID_00000181073680133037022010000017631087248132040632_);" d="
							M309.192,104.788c-1.351,0.775-2.431,2.672-2.412,4.236c0.019,1.566,1.131,2.206,2.482,1.431
							c1.351-0.775,2.43-2.672,2.411-4.237C311.653,104.654,310.542,104.014,309.192,104.788z"/>
						<path style="fill-rule:evenodd;clip-rule:evenodd;fill:#FFFFFF;" d="M308.267,106.143c-0.445,0.255-0.801,0.88-0.794,1.396
							c0.006,0.515,0.372,0.727,0.818,0.471c0.445-0.255,0.801-0.88,0.794-1.396C309.078,106.099,308.712,105.888,308.267,106.143z"
							/>
					</g>
					<g>
						<path style="fill-rule:evenodd;clip-rule:evenodd;fill:#7F7F7F;" d="M312.954,111.122c-1.692,0.971-3.044,3.346-3.02,5.305
							c0.025,1.96,1.416,2.762,3.108,1.791c1.69-0.97,3.042-3.346,3.018-5.305C316.036,110.954,314.645,110.152,312.954,111.122z"/>
						
							<linearGradient id="SVGID_00000050631906288338798380000015631794027701513896_" gradientUnits="userSpaceOnUse" x1="311.1576" y1="118.7448" x2="315.6175" y2="111.0199">
							<stop  offset="0" style="stop-color:#B2B2B2"/>
							<stop  offset="1" style="stop-color:#FFFFFF"/>
						</linearGradient>
						
							<path style="fill-rule:evenodd;clip-rule:evenodd;fill:url(#SVGID_00000050631906288338798380000015631794027701513896_);" d="
							M313.343,111.335c-1.692,0.971-3.043,3.346-3.019,5.305c0.024,1.96,1.416,2.762,3.107,1.791
							c1.691-0.97,3.042-3.346,3.018-5.305C316.426,111.167,315.034,110.365,313.343,111.335z"/>
						
							<linearGradient id="SVGID_00000161600543930625171730000007698063509206884005_" gradientUnits="userSpaceOnUse" x1="315.1141" y1="111.7675" x2="311.6598" y2="117.9992">
							<stop  offset="0" style="stop-color:#B2B2B2"/>
							<stop  offset="1" style="stop-color:#FFFFFF"/>
						</linearGradient>
						
							<path style="fill-rule:evenodd;clip-rule:evenodd;fill:url(#SVGID_00000161600543930625171730000007698063509206884005_);" d="
							M313.353,112.049c-1.351,0.775-2.431,2.672-2.412,4.237c0.02,1.565,1.131,2.205,2.482,1.43
							c1.351-0.774,2.43-2.672,2.411-4.237C315.814,111.915,314.703,111.275,313.353,112.049z"/>
						<path style="fill-rule:evenodd;clip-rule:evenodd;fill:#FFFFFF;" d="M312.428,113.404c-0.445,0.256-0.801,0.88-0.794,1.396
							c0.006,0.515,0.372,0.726,0.818,0.471c0.445-0.255,0.801-0.88,0.794-1.396C313.238,113.36,312.872,113.149,312.428,113.404z"
							/>
					</g>
					<g>
						<path style="fill-rule:evenodd;clip-rule:evenodd;fill:#7F7F7F;" d="M316.02,118.921c-1.692,0.971-3.044,3.346-3.02,5.305
							c0.025,1.96,1.416,2.761,3.108,1.791c1.69-0.97,3.042-3.346,3.018-5.306C319.101,118.753,317.71,117.951,316.02,118.921z"/>
						
							<linearGradient id="SVGID_00000032609557987894176710000013803040035639956377_" gradientUnits="userSpaceOnUse" x1="314.2228" y1="126.5434" x2="318.6824" y2="118.8192">
							<stop  offset="0" style="stop-color:#B2B2B2"/>
							<stop  offset="1" style="stop-color:#FFFFFF"/>
						</linearGradient>
						
							<path style="fill-rule:evenodd;clip-rule:evenodd;fill:url(#SVGID_00000032609557987894176710000013803040035639956377_);" d="
							M316.409,119.134c-1.692,0.97-3.044,3.346-3.019,5.305c0.024,1.96,1.416,2.761,3.108,1.791
							c1.691-0.97,3.042-3.346,3.018-5.306C319.491,118.965,318.1,118.163,316.409,119.134z"/>
						
							<linearGradient id="SVGID_00000095319804862059437170000015478815969028754610_" gradientUnits="userSpaceOnUse" x1="318.1793" y1="119.5662" x2="314.725" y2="125.7979">
							<stop  offset="0" style="stop-color:#B2B2B2"/>
							<stop  offset="1" style="stop-color:#FFFFFF"/>
						</linearGradient>
						
							<path style="fill-rule:evenodd;clip-rule:evenodd;fill:url(#SVGID_00000095319804862059437170000015478815969028754610_);" d="
							M316.418,119.848c-1.351,0.775-2.431,2.672-2.412,4.237c0.02,1.566,1.131,2.206,2.482,1.43
							c1.351-0.775,2.43-2.672,2.411-4.237C318.879,119.714,317.768,119.073,316.418,119.848z"/>
						<path style="fill-rule:evenodd;clip-rule:evenodd;fill:#FFFFFF;" d="M315.493,121.203c-0.445,0.256-0.801,0.88-0.794,1.396
							c0.006,0.515,0.372,0.726,0.818,0.471c0.445-0.255,0.801-0.88,0.794-1.396C316.304,121.158,315.938,120.948,315.493,121.203z"
							/>
					</g>
					<g>
						<path style="fill-rule:evenodd;clip-rule:evenodd;fill:#7F7F7F;" d="M318.467,126.842c-1.692,0.971-3.044,3.346-3.019,5.305
							c0.024,1.96,1.416,2.762,3.108,1.791c1.691-0.97,3.042-3.346,3.018-5.305C321.55,126.675,320.159,125.873,318.467,126.842z"/>
						
							<linearGradient id="SVGID_00000029728770979752000370000016519782125296906376_" gradientUnits="userSpaceOnUse" x1="316.6708" y1="134.4653" x2="321.1307" y2="126.7404">
							<stop  offset="0" style="stop-color:#B2B2B2"/>
							<stop  offset="1" style="stop-color:#FFFFFF"/>
						</linearGradient>
						
							<path style="fill-rule:evenodd;clip-rule:evenodd;fill:url(#SVGID_00000029728770979752000370000016519782125296906376_);" d="
							M318.857,127.056c-1.692,0.97-3.044,3.346-3.02,5.305c0.025,1.96,1.416,2.761,3.108,1.791c1.69-0.97,3.042-3.346,3.018-5.305
							C321.939,126.887,320.547,126.085,318.857,127.056z"/>
						
							<linearGradient id="SVGID_00000029018324820145531360000012038731939816250793_" gradientUnits="userSpaceOnUse" x1="320.6272" y1="127.4883" x2="317.1732" y2="133.7196">
							<stop  offset="0" style="stop-color:#B2B2B2"/>
							<stop  offset="1" style="stop-color:#FFFFFF"/>
						</linearGradient>
						
							<path style="fill-rule:evenodd;clip-rule:evenodd;fill:url(#SVGID_00000029018324820145531360000012038731939816250793_);" d="
							M318.865,127.77c-1.351,0.775-2.431,2.672-2.411,4.236c0.02,1.565,1.131,2.206,2.482,1.431c1.35-0.775,2.43-2.672,2.411-4.238
							C321.327,127.636,320.215,126.995,318.865,127.77z"/>
						<path style="fill-rule:evenodd;clip-rule:evenodd;fill:#FFFFFF;" d="M317.941,129.125c-0.445,0.255-0.801,0.88-0.795,1.396
							c0.007,0.515,0.373,0.726,0.818,0.471c0.445-0.255,0.801-0.88,0.794-1.396C318.752,129.08,318.386,128.869,317.941,129.125z"
							/>
					</g>
				</g>
				<polygon style="fill-rule:evenodd;clip-rule:evenodd;fill:#BCB5AD;" points="151.428,118.242 159.544,158.154 205.374,184.411 
					230.967,164.058 				"/>
				<g>
					<path style="fill-rule:evenodd;clip-rule:evenodd;fill:#161713;" d="M203.854,180.436l38.751,64.703l25.786-14.494
						c25.868-14.633-12.688-80.248-38.408-65.348L203.854,180.436z"/>
					<g>
						<path style="fill-rule:evenodd;clip-rule:evenodd;fill:#363634;" d="M206.681,185.158L206.681,185.158l37.209-21.103
							c-3.679-1.157-7.362-1.289-10.874-0.117l-29.162,16.499L206.681,185.158z"/>
						<path style="fill-rule:evenodd;clip-rule:evenodd;fill:#363634;" d="M211.822,193.74l42.285-23.983
							c-2.021-1.609-4.099-2.98-6.201-4.048l-39.595,22.168L211.822,193.74z"/>
						<path style="fill-rule:evenodd;clip-rule:evenodd;fill:#363634;" d="M213.734,196.933l6.31,3.64l41.498-23.537
							c-1.498-1.76-3.065-3.406-4.681-4.907l-43.422,24.312L213.734,196.933z"/>
						<path style="fill-rule:evenodd;clip-rule:evenodd;fill:#363634;" d="M219.657,204.495l6.889,3.973l40.972-23.238
							c-1.172-1.878-2.428-3.696-3.752-5.432L219.657,204.495z"/>
						<path style="fill-rule:evenodd;clip-rule:evenodd;fill:#363634;" d="M226.382,211.896l6.889,3.973l38.842-22.031
							c-0.892-1.989-1.887-3.957-2.975-5.881L226.382,211.896z"/>
						<path style="fill-rule:evenodd;clip-rule:evenodd;fill:#363634;" d="M232.15,220.104l6.889,3.974l36.473-20.686
							c-0.551-2.119-1.251-4.262-2.08-6.4L232.15,220.104z"/>
						<path style="fill-rule:evenodd;clip-rule:evenodd;fill:#363634;" d="M236.622,235.149l1.648,0.952l38.667-21.931
							c0.027-1.776-0.098-3.618-0.359-5.504c-0.041-0.293-0.083-0.587-0.131-0.882l-0.054-0.331
							c-0.027-0.158-0.059-0.318-0.088-0.477l-42.354,23.713L236.622,235.149z"/>
						<path style="fill-rule:evenodd;clip-rule:evenodd;fill:#363634;" d="M242.447,244.876l28.933-16.411
							c0.208-0.191,0.409-0.388,0.604-0.588l0.13-0.135c2.487-2.619,3.94-5.994,4.527-9.83l-37.701,21.109L242.447,244.876z"/>
					</g>
					<path style="fill-rule:evenodd;clip-rule:evenodd;fill:#161713;" d="M222.714,182.259
						c14.816,8.439,26.828,29.097,26.828,46.127c0,17.041-12.011,24.014-26.828,15.574c-14.807-8.435-26.818-29.091-26.818-46.133
						C195.896,180.797,207.907,173.824,222.714,182.259z"/>
					<path style="fill-rule:evenodd;clip-rule:evenodd;fill:#BCB5AD;" d="M222.715,191.525c10.366,5.905,18.77,20.358,18.77,32.273
						c0,11.923-8.404,16.801-18.77,10.896c-10.359-5.901-18.763-20.354-18.763-32.277
						C203.952,190.502,212.356,185.624,222.715,191.525z"/>
					<path style="fill-rule:evenodd;clip-rule:evenodd;fill:#7D870B;" d="M220.958,198.1c7.885,4.492,14.277,15.484,14.277,24.548
						c0,9.069-6.392,12.779-14.277,8.288c-7.88-4.489-14.272-15.482-14.272-24.551C206.687,197.322,213.079,193.611,220.958,198.1z"
						/>
					<g>
						<path style="fill-rule:evenodd;clip-rule:evenodd;fill:#363634;" d="M220.256,207.447c3.607,2.055,6.532,7.084,6.532,11.231
							c0,4.15-2.924,5.847-6.532,3.792c-3.605-2.054-6.53-7.083-6.53-11.232C213.726,207.091,216.651,205.393,220.256,207.447z"/>
						<path style="fill-rule:evenodd;clip-rule:evenodd;fill:#BCB5AD;" d="M225.418,222.5c-1.103,0.351-2.484,0.147-3.987-0.708
							c-3.606-2.054-6.529-7.084-6.529-11.232c0-1.734,0.512-3.037,1.37-3.82c1.102-0.35,2.482-0.146,3.982,0.708
							c3.61,2.054,6.533,7.084,6.533,11.23C226.788,220.412,226.275,221.716,225.418,222.5z"/>
					</g>
				</g>
				<g>
					<path style="fill-rule:evenodd;clip-rule:evenodd;fill:#7D870B;" d="M203.034,165.359l39.243,22.693
						c4.125,2.386,8.85,2.387,12.977,0.005l21.652-12.499v-2.351l-73.873-10.199V165.359z"/>
					<path style="fill-rule:evenodd;clip-rule:evenodd;fill:#9FAA20;" d="M203.034,163.008l39.243,22.693
						c4.125,2.385,8.85,2.387,12.977,0.005l21.652-12.499l-75.768-43.809L203.034,163.008z"/>
				</g>
				<path style="fill-rule:evenodd;clip-rule:evenodd;fill:#9FAA20;" d="M236.01,117.914c5.343,3.043,9.674,10.492,9.674,16.633
					c0,6.145-4.331,8.66-9.674,5.616c-5.34-3.041-9.671-10.491-9.671-16.635C226.34,117.387,230.671,114.872,236.01,117.914z"/>
				<path style="fill-rule:evenodd;clip-rule:evenodd;fill:#8B9615;" d="M235.154,118.507c5.343,3.044,9.674,10.492,9.674,16.634
					c0,6.144-4.331,8.659-9.674,5.615c-5.339-3.041-9.671-10.49-9.671-16.635C225.483,117.98,229.815,115.466,235.154,118.507z"/>
				<g>
					<path style="fill-rule:evenodd;clip-rule:evenodd;fill:#9FAA20;" d="M303.702,221.733c-1.604-9.552-7.509-19.838-11.013-21.861
						l-7.295-4.211l-5.349,3.095l18.308,26.071L303.702,221.733z"/>
					<path style="fill-rule:evenodd;clip-rule:evenodd;fill:#7D870B;" d="M298.353,224.827c-1.605-9.552-7.509-19.837-11.013-21.861
						l-7.295-4.21l-0.001,15.507L298.353,224.827z"/>
				</g>
				<g>
					<path style="fill-rule:evenodd;clip-rule:evenodd;fill:#9FAA20;" d="M348.683,195.584c-1.604-9.552-7.509-19.837-11.013-21.86
						l-7.294-4.211l-5.35,3.095l18.308,26.071L348.683,195.584z"/>
					<path style="fill-rule:evenodd;clip-rule:evenodd;fill:#7D870B;" d="M343.334,198.679c-1.604-9.552-7.509-19.838-11.013-21.861
						l-7.295-4.211l-0.001,15.508L343.334,198.679z"/>
				</g>
				<g>
					<path style="fill-rule:evenodd;clip-rule:evenodd;fill:#9FAA20;" d="M326.502,208.349c-1.604-9.551-7.508-19.837-11.013-21.86
						l-7.295-4.211l-5.349,3.095l18.308,26.071L326.502,208.349z"/>
					<path style="fill-rule:evenodd;clip-rule:evenodd;fill:#7D870B;" d="M321.152,211.444c-1.604-9.551-7.509-19.837-11.013-21.86
						l-7.294-4.21l-0.001,15.508L321.152,211.444z"/>
				</g>
				<g>
					<path style="fill-rule:evenodd;clip-rule:evenodd;fill:#BCB5AD;" d="M394.118,161.785L218.726,262.99l29.709,42.042
						l173.784-100.277c-2.812-16.738-11.244-33.239-17.384-36.783L394.118,161.785z"/>
					<polygon style="fill-rule:evenodd;clip-rule:evenodd;fill:#F1ECE6;" points="392.053,160.593 216.639,261.81 218.726,262.99 
						394.118,161.785 					"/>
					<path style="fill-rule:evenodd;clip-rule:evenodd;fill:#F1ECE6;" d="M404.01,189.327l-168.668,97.326l12.917,18.394
						l173.96-100.292c-3.192-5.425-4.914-7.754-7.491-9.242L404.01,189.327z"/>
					<polygon style="fill-rule:evenodd;clip-rule:evenodd;fill:#BCB5AD;" points="421.761,202.635 246.348,303.852 248.435,305.032 
						423.827,203.827 					"/>
					<path style="fill-rule:evenodd;clip-rule:evenodd;fill:#F1ECE6;" d="M424.103,206.248
						c-2.812-16.739-13.156-34.769-19.299-38.309l-12.751-7.346l-0.033,19.653c-0.008,4.762,2.543,8.563,6.488,11.235l23.592,15.978
						L424.103,206.248z"/>
					<path style="fill-rule:evenodd;clip-rule:evenodd;fill:#A39A8F;" d="M422.099,207.459
						c-2.812-16.738-13.474-34.912-19.615-38.456l-10.437-6.023l0,19.684c0,4.764,2.359,8.859,6.488,11.236L422.099,207.459z"/>
					<g>
						<path style="fill-rule:evenodd;clip-rule:evenodd;fill:#161713;" d="M394.665,169.751
							c8.021,4.571,14.523,15.754,14.523,24.973c0,9.225-6.502,13.001-14.523,8.433v-1.863l0.001,0.001
							c0.611,0.365,1.128,0.184,1.292-0.449l0.843-3.274c0.114-0.443,0.384-0.662,0.779-0.629c0.394,0.032,0.802,0.307,1.174,0.792
							l2.745,3.57c0.532,0.692,1.177,0.968,1.609,0.689c0.432-0.278,0.52-1.028,0.219-1.868l-1.554-4.34
							c-0.209-0.588-0.234-1.11-0.071-1.502c0.164-0.392,0.47-0.546,0.882-0.442l3.041,0.768c0.588,0.149,0.982-0.259,0.982-1.018
							c0-0.76-0.393-1.639-0.982-2.194l-3.041-2.866c-0.412-0.387-0.718-0.907-0.88-1.495c-0.164-0.588-0.139-1.08,0.07-1.416
							l1.555-2.485c0.3-0.481,0.213-1.334-0.22-2.129c-0.432-0.797-1.076-1.29-1.608-1.235l-2.747,0.29
							c-0.372,0.039-0.78-0.173-1.174-0.612c-0.395-0.439-0.665-0.98-0.779-1.56l-0.843-4.281c-0.164-0.83-0.681-1.628-1.293-1.995
							l-0.001-0.001V169.751L394.665,169.751z M394.665,189.84c1.626,0.925,2.944,0.16,2.944-1.711c0-1.869-1.319-4.134-2.944-5.061
							V189.84z M394.662,169.75l0.002,0.001v1.862c-0.611-0.366-1.128-0.184-1.292,0.45l-0.843,3.274
							c-0.114,0.442-0.385,0.661-0.779,0.628c-0.395-0.032-0.802-0.307-1.175-0.79l-2.745-3.57
							c-0.533-0.693-1.177-0.969-1.609-0.691c-0.433,0.278-0.52,1.027-0.219,1.869l1.554,4.341c0.209,0.588,0.234,1.109,0.071,1.502
							c-0.164,0.392-0.469,0.546-0.88,0.442l-3.04-0.768c-0.59-0.149-0.984,0.258-0.984,1.019c0.001,0.76,0.395,1.637,0.984,2.193
							l3.04,2.864c0.412,0.387,0.718,0.908,0.88,1.495c0.164,0.587,0.138,1.079-0.071,1.416l-1.554,2.484
							c-0.301,0.482-0.213,1.335,0.22,2.132c0.433,0.795,1.077,1.288,1.608,1.232l2.745-0.289c0.372-0.039,0.781,0.173,1.175,0.612
							c0.394,0.439,0.665,0.98,0.779,1.561l0.843,4.282c0.164,0.83,0.681,1.627,1.292,1.994v1.863l-0.002-0.001
							c-8.016-4.566-14.52-15.75-14.52-24.977C380.142,168.958,386.646,165.183,394.662,169.75L394.662,169.75z M394.665,183.068
							L394.665,183.068c-1.624-0.926-2.944-0.161-2.944,1.709c0,1.87,1.319,4.137,2.943,5.063l0,0.001V183.068z"/>
						<path style="fill-rule:evenodd;clip-rule:evenodd;fill:#363634;" d="M393.624,170.357
							c8.021,4.571,14.523,15.754,14.523,24.974c0,9.226-6.502,13.001-14.523,8.433V201.9l0.001,0.001
							c0.611,0.366,1.128,0.184,1.292-0.449l0.844-3.274c0.113-0.443,0.384-0.662,0.779-0.63c0.394,0.033,0.802,0.307,1.174,0.791
							l2.745,3.571c0.533,0.692,1.177,0.968,1.609,0.689c0.432-0.278,0.521-1.027,0.22-1.869l-1.554-4.34
							c-0.209-0.588-0.234-1.11-0.071-1.502c0.164-0.392,0.469-0.546,0.881-0.442l3.041,0.768c0.588,0.149,0.982-0.258,0.982-1.018
							c0-0.759-0.393-1.638-0.982-2.193l-3.041-2.866c-0.412-0.387-0.717-0.907-0.88-1.494c-0.164-0.588-0.138-1.081,0.071-1.416
							l1.555-2.485c0.3-0.481,0.213-1.333-0.219-2.128c-0.432-0.797-1.077-1.291-1.609-1.235l-2.747,0.29
							c-0.372,0.039-0.78-0.174-1.174-0.612c-0.395-0.439-0.665-0.98-0.779-1.56l-0.843-4.282c-0.164-0.83-0.682-1.627-1.293-1.994
							l-0.001-0.001V170.357L393.624,170.357z M393.624,190.447c1.625,0.925,2.944,0.159,2.944-1.711
							c0-1.868-1.319-4.133-2.944-5.061V190.447z M393.621,170.356l0.002,0.001v1.863c-0.612-0.366-1.129-0.185-1.293,0.449
							l-0.844,3.274c-0.114,0.443-0.385,0.661-0.779,0.628c-0.395-0.032-0.802-0.307-1.174-0.79l-2.745-3.571
							c-0.533-0.693-1.176-0.969-1.609-0.69c-0.433,0.278-0.52,1.027-0.219,1.868l1.554,4.341c0.209,0.588,0.234,1.109,0.07,1.501
							c-0.164,0.392-0.468,0.546-0.88,0.443l-3.04-0.768c-0.59-0.149-0.983,0.258-0.983,1.019c0.001,0.76,0.394,1.638,0.983,2.192
							l3.04,2.865c0.412,0.387,0.718,0.908,0.88,1.495c0.164,0.587,0.139,1.079-0.07,1.416l-1.554,2.485
							c-0.301,0.482-0.213,1.335,0.219,2.131c0.433,0.795,1.077,1.289,1.609,1.232l2.745-0.289c0.373-0.039,0.781,0.173,1.176,0.613
							c0.394,0.439,0.665,0.98,0.778,1.56l0.844,4.282c0.164,0.831,0.681,1.628,1.293,1.993v1.863l-0.002-0.001
							c-8.017-4.566-14.521-15.751-14.521-24.977C379.101,169.565,385.604,165.789,393.621,170.356L393.621,170.356z
							 M393.624,183.674l-0.001-0.001c-1.624-0.926-2.943-0.16-2.943,1.71c0,1.87,1.319,4.137,2.943,5.063l0.001,0.001V183.674z"/>
					</g>
					<path style="fill-rule:evenodd;clip-rule:evenodd;fill:#F1ECE6;" d="M392.998,186.035l-30.677,17.711l2.087,1.18l29.768-17.187
						C394.913,187.314,393.774,185.587,392.998,186.035z"/>
					<path style="fill-rule:evenodd;clip-rule:evenodd;fill:#191919;" d="M382.957,175.859l-153.759,88.869l1.231,0.696
						l153.223-88.559C384.086,176.614,383.415,175.595,382.957,175.859z"/>
					<path style="fill-rule:evenodd;clip-rule:evenodd;fill:#191919;" d="M382.984,186.877l-153.759,88.869l1.231,0.696
						l153.223-88.559C384.113,187.632,383.442,186.613,382.984,186.877z"/>
					<path style="fill-rule:evenodd;clip-rule:evenodd;fill:#191919;" d="M388.974,196.741l-153.759,88.869l1.231,0.696
						l153.223-88.559C390.103,197.495,389.432,196.477,388.974,196.741z"/>
					<path style="fill-rule:evenodd;clip-rule:evenodd;fill:#191919;" d="M397.823,202.311L244.064,291.18l1.231,0.695
						l153.222-88.559C398.952,203.065,398.281,202.047,397.823,202.311z"/>
					<g>
						<path style="fill-rule:evenodd;clip-rule:evenodd;fill:#161713;" d="M363.766,190.637
							c6.596,3.758,11.942,12.953,11.942,20.535c0,7.586-5.346,10.69-11.942,6.934v-1.533l0.001,0.001
							c0.502,0.3,0.927,0.152,1.062-0.369l0.694-2.692c0.093-0.364,0.316-0.544,0.641-0.517c0.325,0.027,0.659,0.252,0.965,0.651
							l2.258,2.936c0.438,0.569,0.968,0.796,1.323,0.566c0.356-0.229,0.428-0.845,0.18-1.536l-1.278-3.569
							c-0.172-0.483-0.193-0.912-0.059-1.236c0.134-0.322,0.386-0.449,0.725-0.363l2.501,0.632c0.483,0.123,0.807-0.213,0.807-0.837
							c0-0.624-0.323-1.347-0.807-1.803l-2.501-2.357c-0.339-0.318-0.59-0.745-0.724-1.229c-0.135-0.483-0.113-0.888,0.058-1.164
							l1.279-2.043c0.246-0.396,0.175-1.096-0.181-1.75c-0.355-0.655-0.885-1.061-1.323-1.016l-2.258,0.238
							c-0.306,0.033-0.641-0.143-0.965-0.504c-0.325-0.361-0.547-0.806-0.641-1.283l-0.693-3.521
							c-0.135-0.682-0.561-1.338-1.063-1.64l-0.001-0.001V190.637L363.766,190.637z M363.766,207.156
							c1.337,0.761,2.421,0.131,2.421-1.407c0-1.536-1.084-3.399-2.421-4.162V207.156z M363.764,190.636l0.002,0.001v1.531
							c-0.503-0.3-0.928-0.15-1.063,0.37l-0.694,2.692c-0.094,0.364-0.316,0.544-0.641,0.517c-0.324-0.026-0.659-0.252-0.965-0.65
							l-2.258-2.936c-0.438-0.57-0.967-0.797-1.323-0.567c-0.356,0.229-0.428,0.844-0.18,1.537l1.278,3.569
							c0.172,0.484,0.193,0.912,0.058,1.234c-0.134,0.322-0.385,0.449-0.724,0.364l-2.5-0.632c-0.485-0.122-0.809,0.212-0.809,0.839
							c0.001,0.624,0.324,1.346,0.809,1.802l2.5,2.355c0.339,0.318,0.59,0.746,0.724,1.229c0.135,0.484,0.114,0.888-0.058,1.164
							l-1.278,2.043c-0.247,0.397-0.175,1.098,0.181,1.753c0.356,0.653,0.885,1.06,1.322,1.013l2.258-0.238
							c0.306-0.032,0.642,0.142,0.966,0.504c0.324,0.361,0.546,0.806,0.64,1.283l0.694,3.521c0.135,0.683,0.56,1.338,1.063,1.639
							v1.533l-0.002-0.001c-6.592-3.755-11.94-12.951-11.94-20.538C351.824,189.986,357.172,186.881,363.764,190.636
							L363.764,190.636z M363.766,201.587L363.766,201.587c-1.336-0.762-2.42-0.132-2.42,1.406c0,1.538,1.084,3.402,2.42,4.163
							l0,0.001V201.587z"/>
						<path style="fill-rule:evenodd;clip-rule:evenodd;fill:#363634;" d="M362.909,191.136
							c6.596,3.759,11.942,12.954,11.942,20.535c0,7.586-5.346,10.691-11.942,6.934v-1.532l0.001,0.001
							c0.502,0.3,0.927,0.151,1.062-0.37l0.694-2.692c0.094-0.364,0.316-0.544,0.641-0.517c0.324,0.026,0.659,0.252,0.965,0.65
							l2.258,2.936c0.438,0.569,0.967,0.796,1.323,0.567c0.356-0.229,0.428-0.845,0.18-1.537l-1.278-3.569
							c-0.172-0.483-0.193-0.912-0.059-1.235c0.135-0.323,0.386-0.449,0.725-0.364l2.501,0.632c0.484,0.122,0.807-0.213,0.807-0.837
							c0-0.624-0.323-1.347-0.807-1.803l-2.501-2.356c-0.339-0.319-0.59-0.746-0.724-1.229c-0.134-0.484-0.113-0.888,0.058-1.164
							l1.279-2.044c0.246-0.396,0.175-1.097-0.181-1.75c-0.355-0.656-0.885-1.062-1.323-1.015l-2.259,0.238
							c-0.306,0.032-0.641-0.143-0.965-0.503c-0.325-0.361-0.547-0.806-0.641-1.283l-0.693-3.52c-0.135-0.683-0.56-1.338-1.063-1.64
							l-0.001-0.001V191.136L362.909,191.136z M362.909,207.655c1.336,0.761,2.421,0.131,2.421-1.407
							c0-1.537-1.085-3.399-2.421-4.161V207.655z M362.907,191.135l0.002,0.001v1.532c-0.503-0.301-0.928-0.151-1.063,0.369
							l-0.694,2.692c-0.094,0.364-0.316,0.544-0.641,0.516c-0.324-0.027-0.659-0.252-0.965-0.65l-2.258-2.936
							c-0.438-0.57-0.967-0.796-1.323-0.567c-0.356,0.229-0.428,0.844-0.18,1.536l1.278,3.569c0.172,0.484,0.193,0.912,0.058,1.235
							c-0.135,0.322-0.385,0.449-0.724,0.364l-2.5-0.631c-0.484-0.123-0.808,0.211-0.808,0.838c0.001,0.624,0.324,1.346,0.808,1.803
							l2.5,2.355c0.339,0.318,0.59,0.746,0.724,1.229c0.134,0.483,0.113,0.887-0.058,1.164l-1.278,2.043
							c-0.248,0.396-0.175,1.098,0.181,1.753c0.356,0.653,0.886,1.059,1.322,1.013l2.258-0.238c0.306-0.033,0.642,0.142,0.966,0.503
							c0.324,0.361,0.546,0.806,0.64,1.283l0.694,3.521c0.135,0.682,0.56,1.338,1.063,1.639v1.532l-0.002-0.001
							c-6.592-3.755-11.94-12.951-11.94-20.538C350.968,190.484,356.315,187.38,362.907,191.135L362.907,191.135z M362.909,202.086
							L362.909,202.086c-1.336-0.762-2.42-0.132-2.42,1.405c0,1.538,1.084,3.402,2.42,4.163l0.001,0.001V202.086z"/>
					</g>
					<path style="fill-rule:evenodd;clip-rule:evenodd;fill:#F1ECE6;" d="M361.89,203.945l-31.243,18.029l2.087,1.18l30.335-17.505
						C363.805,205.225,362.666,203.497,361.89,203.945z"/>
					<g>
						<path style="fill-rule:evenodd;clip-rule:evenodd;fill:#161713;" d="M332.82,208.37c6.596,3.759,11.942,12.954,11.942,20.535
							c0,7.586-5.346,10.691-11.942,6.934v-1.532l0.001,0.001c0.502,0.3,0.927,0.151,1.062-0.37l0.694-2.692
							c0.094-0.364,0.316-0.545,0.641-0.517c0.324,0.026,0.659,0.252,0.965,0.65l2.257,2.936c0.439,0.569,0.967,0.797,1.323,0.567
							c0.355-0.229,0.428-0.845,0.18-1.536l-1.278-3.569c-0.172-0.484-0.193-0.912-0.059-1.235c0.134-0.323,0.386-0.449,0.724-0.364
							l2.501,0.631c0.484,0.123,0.807-0.213,0.807-0.837c0-0.624-0.323-1.347-0.807-1.804l-2.501-2.356
							c-0.339-0.319-0.59-0.746-0.724-1.229c-0.135-0.484-0.114-0.888,0.058-1.164l1.279-2.044c0.247-0.396,0.176-1.096-0.18-1.75
							c-0.355-0.656-0.885-1.062-1.323-1.016l-2.258,0.238c-0.306,0.033-0.641-0.142-0.965-0.503
							c-0.325-0.361-0.547-0.806-0.641-1.284l-0.693-3.52c-0.134-0.682-0.56-1.338-1.063-1.64l-0.001-0.001V208.37L332.82,208.37z
							 M332.82,224.889c1.337,0.761,2.421,0.132,2.421-1.407c0-1.537-1.084-3.399-2.421-4.161V224.889z M332.818,208.369
							l0.002,0.001v1.532c-0.503-0.301-0.928-0.151-1.062,0.369l-0.694,2.692c-0.094,0.364-0.317,0.544-0.641,0.517
							c-0.324-0.027-0.66-0.252-0.966-0.65l-2.257-2.937c-0.438-0.569-0.967-0.796-1.323-0.567c-0.357,0.229-0.428,0.844-0.18,1.537
							l1.278,3.569c0.172,0.484,0.192,0.912,0.058,1.235c-0.134,0.322-0.385,0.449-0.724,0.364l-2.5-0.631
							c-0.484-0.123-0.808,0.211-0.808,0.838c0.001,0.624,0.324,1.346,0.808,1.803l2.5,2.355c0.339,0.318,0.59,0.746,0.724,1.229
							c0.135,0.483,0.114,0.887-0.058,1.164l-1.278,2.043c-0.248,0.396-0.176,1.098,0.18,1.753c0.356,0.653,0.885,1.059,1.323,1.013
							l2.257-0.238c0.306-0.033,0.643,0.142,0.967,0.503c0.324,0.361,0.547,0.806,0.64,1.283l0.694,3.521
							c0.134,0.682,0.559,1.338,1.062,1.639v1.532l-0.002-0.001c-6.592-3.755-11.939-12.951-11.939-20.538
							C320.879,207.718,326.226,204.614,332.818,208.369L332.818,208.369z M332.82,219.321L332.82,219.321
							c-1.335-0.762-2.42-0.132-2.42,1.406c0,1.537,1.085,3.402,2.42,4.162l0.001,0.001V219.321z"/>
						<path style="fill-rule:evenodd;clip-rule:evenodd;fill:#363634;" d="M331.963,208.869
							c6.596,3.758,11.942,12.953,11.942,20.534c0,7.586-5.346,10.69-11.942,6.934v-1.532l0.001,0.001
							c0.502,0.3,0.927,0.152,1.062-0.369l0.694-2.693c0.094-0.364,0.316-0.544,0.641-0.517c0.324,0.027,0.659,0.252,0.965,0.651
							l2.257,2.936c0.439,0.569,0.968,0.796,1.324,0.566c0.355-0.229,0.428-0.845,0.18-1.536l-1.278-3.569
							c-0.172-0.483-0.193-0.912-0.059-1.235c0.135-0.322,0.386-0.449,0.725-0.363l2.501,0.632c0.484,0.122,0.807-0.213,0.807-0.837
							c0-0.624-0.323-1.347-0.807-1.803l-2.501-2.357c-0.339-0.318-0.59-0.745-0.724-1.229c-0.134-0.483-0.114-0.888,0.058-1.164
							l1.278-2.043c0.247-0.396,0.176-1.096-0.18-1.751c-0.355-0.655-0.885-1.061-1.323-1.015l-2.259,0.238
							c-0.306,0.032-0.641-0.143-0.965-0.503c-0.325-0.361-0.547-0.806-0.641-1.283l-0.693-3.521
							c-0.135-0.682-0.561-1.338-1.063-1.64l-0.001,0V208.869L331.963,208.869z M331.963,225.388
							c1.337,0.761,2.421,0.131,2.421-1.407c0-1.537-1.084-3.399-2.421-4.162V225.388z M331.962,208.868l0.002,0.001v1.531
							c-0.503-0.3-0.928-0.151-1.062,0.37l-0.694,2.692c-0.094,0.364-0.317,0.543-0.641,0.516c-0.324-0.026-0.66-0.252-0.966-0.65
							l-2.257-2.936c-0.438-0.57-0.967-0.797-1.323-0.567c-0.356,0.229-0.428,0.844-0.18,1.536l1.278,3.57
							c0.172,0.484,0.192,0.912,0.058,1.234c-0.134,0.322-0.385,0.449-0.724,0.365l-2.5-0.632c-0.484-0.122-0.808,0.212-0.808,0.838
							c0.001,0.625,0.324,1.347,0.808,1.803l2.5,2.355c0.339,0.318,0.59,0.746,0.724,1.229c0.134,0.483,0.114,0.888-0.058,1.164
							l-1.278,2.043c-0.248,0.397-0.176,1.098,0.18,1.753c0.356,0.654,0.885,1.06,1.323,1.013l2.257-0.238
							c0.306-0.032,0.643,0.143,0.966,0.504c0.324,0.361,0.547,0.806,0.641,1.283l0.694,3.52c0.135,0.683,0.559,1.338,1.062,1.639
							v1.532l-0.002-0.001c-6.592-3.755-11.939-12.951-11.939-20.538C320.022,208.218,325.37,205.113,331.962,208.868
							L331.962,208.868z M331.963,219.819L331.963,219.819c-1.335-0.762-2.42-0.132-2.42,1.405c0,1.538,1.085,3.402,2.42,4.163
							l0,0.001V219.819z"/>
					</g>
					<path style="fill-rule:evenodd;clip-rule:evenodd;fill:#F1ECE6;" d="M331.091,221.7l-30.677,17.711l2.087,1.18l29.768-17.187
						C333.006,222.979,331.866,221.252,331.091,221.7z"/>
					<g>
						<path style="fill-rule:evenodd;clip-rule:evenodd;fill:#161713;" d="M301.766,226.287
							c6.596,3.758,11.942,12.954,11.942,20.535c0,7.586-5.346,10.69-11.942,6.934v-1.532l0.001,0.001
							c0.502,0.3,0.927,0.151,1.062-0.369l0.694-2.692c0.093-0.365,0.316-0.545,0.641-0.518c0.324,0.027,0.66,0.253,0.966,0.651
							l2.257,2.936c0.438,0.569,0.967,0.796,1.323,0.567c0.356-0.229,0.428-0.845,0.18-1.536l-1.278-3.569
							c-0.172-0.484-0.192-0.912-0.059-1.236c0.134-0.322,0.386-0.449,0.725-0.363l2.501,0.632c0.483,0.123,0.807-0.213,0.807-0.837
							c0-0.624-0.323-1.347-0.807-1.803l-2.501-2.357c-0.339-0.318-0.59-0.745-0.724-1.229c-0.135-0.484-0.114-0.888,0.058-1.164
							l1.279-2.044c0.247-0.396,0.175-1.096-0.18-1.75c-0.356-0.656-0.885-1.062-1.323-1.016l-2.258,0.238
							c-0.306,0.033-0.642-0.142-0.966-0.504c-0.325-0.361-0.547-0.806-0.641-1.283l-0.693-3.521
							c-0.135-0.682-0.56-1.338-1.063-1.639l-0.001-0.001V226.287L301.766,226.287z M301.766,242.806
							c1.336,0.761,2.421,0.131,2.421-1.407c0-1.537-1.085-3.399-2.421-4.161V242.806z M301.764,226.286l0.002,0.001v1.531
							c-0.503-0.301-0.928-0.151-1.063,0.37l-0.694,2.692c-0.093,0.365-0.317,0.544-0.641,0.516
							c-0.324-0.026-0.659-0.252-0.965-0.649l-2.257-2.936c-0.438-0.57-0.967-0.797-1.323-0.567
							c-0.356,0.229-0.428,0.844-0.18,1.537l1.278,3.569c0.172,0.484,0.192,0.912,0.058,1.234c-0.135,0.323-0.386,0.449-0.724,0.364
							l-2.5-0.632c-0.485-0.123-0.808,0.212-0.808,0.839c0.001,0.624,0.324,1.346,0.808,1.803l2.5,2.355
							c0.338,0.319,0.59,0.747,0.724,1.23c0.135,0.483,0.114,0.887-0.058,1.164l-1.278,2.043c-0.247,0.397-0.175,1.098,0.181,1.753
							c0.356,0.653,0.885,1.06,1.323,1.013l2.257-0.238c0.306-0.032,0.642,0.142,0.967,0.504c0.324,0.361,0.547,0.805,0.64,1.283
							l0.694,3.521c0.135,0.683,0.56,1.338,1.063,1.639v1.532l-0.002-0.001c-6.592-3.755-11.94-12.951-11.94-20.538
							C289.824,225.635,295.171,222.531,301.764,226.286L301.764,226.286z M301.766,237.238L301.766,237.238
							c-1.336-0.762-2.42-0.133-2.42,1.405s1.084,3.402,2.42,4.163l0.001,0V237.238z"/>
						<path style="fill-rule:evenodd;clip-rule:evenodd;fill:#363634;" d="M300.909,226.786
							c6.596,3.758,11.942,12.953,11.942,20.534c0,7.586-5.346,10.691-11.942,6.934v-1.532l0.001,0
							c0.502,0.301,0.927,0.151,1.062-0.369l0.694-2.692c0.094-0.364,0.316-0.545,0.641-0.517c0.324,0.026,0.66,0.252,0.966,0.651
							l2.257,2.936c0.438,0.569,0.968,0.797,1.323,0.567c0.356-0.229,0.428-0.845,0.18-1.537l-1.278-3.569
							c-0.172-0.483-0.192-0.912-0.059-1.235c0.135-0.322,0.386-0.449,0.725-0.363l2.501,0.631c0.483,0.123,0.807-0.213,0.807-0.837
							c0-0.625-0.323-1.347-0.807-1.804l-2.501-2.357c-0.339-0.318-0.59-0.745-0.723-1.229c-0.135-0.484-0.114-0.888,0.057-1.164
							l1.279-2.043c0.247-0.396,0.175-1.097-0.18-1.751c-0.356-0.656-0.885-1.061-1.323-1.015l-2.258,0.238
							c-0.306,0.032-0.641-0.143-0.966-0.503c-0.325-0.361-0.547-0.806-0.641-1.283l-0.693-3.521
							c-0.135-0.682-0.561-1.338-1.063-1.64l-0.001-0.001V226.786L300.909,226.786z M300.909,243.305
							c1.337,0.761,2.421,0.131,2.421-1.407c0-1.537-1.084-3.399-2.421-4.162V243.305z M300.907,226.785l0.002,0.001v1.531
							c-0.503-0.3-0.928-0.151-1.063,0.37l-0.694,2.693c-0.093,0.364-0.316,0.543-0.641,0.517c-0.324-0.027-0.659-0.252-0.965-0.65
							l-2.257-2.936c-0.439-0.57-0.967-0.797-1.323-0.568c-0.356,0.229-0.428,0.844-0.18,1.537l1.278,3.57
							c0.172,0.483,0.193,0.911,0.058,1.234c-0.135,0.322-0.385,0.449-0.724,0.364l-2.5-0.631c-0.485-0.123-0.809,0.212-0.809,0.838
							c0.001,0.625,0.325,1.347,0.809,1.803l2.5,2.355c0.339,0.318,0.59,0.746,0.724,1.229c0.135,0.483,0.114,0.887-0.058,1.165
							l-1.278,2.043c-0.247,0.396-0.175,1.098,0.181,1.753c0.356,0.654,0.885,1.059,1.323,1.013l2.257-0.238
							c0.306-0.032,0.642,0.142,0.966,0.504c0.324,0.361,0.547,0.806,0.64,1.283l0.694,3.521c0.135,0.682,0.56,1.338,1.063,1.639
							v1.532l-0.002-0.001c-6.592-3.755-11.94-12.951-11.94-20.537C288.968,226.134,294.315,223.03,300.907,226.785L300.907,226.785
							z M300.909,237.736L300.909,237.736c-1.336-0.762-2.42-0.132-2.42,1.405c0,1.537,1.085,3.402,2.42,4.163l0,0.001V237.736z"/>
					</g>
					<path style="fill-rule:evenodd;clip-rule:evenodd;fill:#F1ECE6;" d="M299.983,239.609l-31.244,18.029l2.087,1.18l30.335-17.505
						C301.898,240.889,300.76,239.161,299.983,239.609z"/>
					<g>
						<path style="fill-rule:evenodd;clip-rule:evenodd;fill:#161713;" d="M271.229,243.919
							c6.596,3.758,11.942,12.954,11.942,20.534c0,7.586-5.346,10.69-11.942,6.934v-1.532l0.001,0.001
							c0.502,0.3,0.927,0.151,1.062-0.369l0.694-2.692c0.094-0.364,0.316-0.544,0.641-0.517c0.325,0.027,0.66,0.252,0.966,0.651
							l2.257,2.936c0.438,0.569,0.967,0.796,1.323,0.567c0.356-0.229,0.428-0.845,0.18-1.536l-1.278-3.569
							c-0.172-0.483-0.192-0.912-0.059-1.235c0.135-0.322,0.386-0.449,0.724-0.363l2.501,0.632c0.484,0.122,0.807-0.213,0.807-0.837
							c0-0.624-0.323-1.347-0.807-1.803l-2.501-2.357c-0.338-0.318-0.59-0.745-0.724-1.229c-0.134-0.484-0.113-0.888,0.058-1.164
							l1.279-2.044c0.246-0.396,0.175-1.096-0.18-1.75c-0.356-0.656-0.885-1.062-1.323-1.016l-2.258,0.238
							c-0.306,0.032-0.641-0.143-0.966-0.503c-0.325-0.361-0.547-0.806-0.641-1.283l-0.693-3.521
							c-0.135-0.682-0.56-1.338-1.063-1.639l-0.001,0V243.919L271.229,243.919z M271.229,260.438
							c1.336,0.761,2.421,0.131,2.421-1.407c0-1.536-1.085-3.399-2.421-4.161V260.438z M271.227,243.918l0.002,0.001v1.531
							c-0.503-0.301-0.928-0.151-1.063,0.369l-0.694,2.692c-0.093,0.364-0.316,0.544-0.641,0.516
							c-0.324-0.026-0.659-0.252-0.965-0.65l-2.258-2.936c-0.438-0.57-0.967-0.797-1.323-0.567c-0.357,0.229-0.428,0.845-0.18,1.537
							l1.278,3.569c0.172,0.483,0.193,0.912,0.058,1.234c-0.134,0.323-0.385,0.449-0.724,0.364l-2.5-0.632
							c-0.484-0.122-0.808,0.212-0.808,0.839c0.001,0.624,0.324,1.346,0.808,1.803l2.5,2.355c0.339,0.319,0.59,0.747,0.724,1.23
							c0.135,0.483,0.114,0.887-0.058,1.164l-1.278,2.042c-0.247,0.397-0.175,1.098,0.181,1.753c0.356,0.654,0.886,1.06,1.322,1.013
							l2.258-0.238c0.306-0.032,0.642,0.143,0.967,0.504c0.324,0.361,0.546,0.806,0.64,1.283l0.694,3.521
							c0.135,0.682,0.56,1.338,1.063,1.639v1.532l-0.002-0.001c-6.592-3.755-11.94-12.951-11.94-20.538
							C259.287,243.267,264.635,240.163,271.227,243.918L271.227,243.918z M271.229,254.87L271.229,254.87
							c-1.336-0.762-2.42-0.132-2.42,1.405c0,1.538,1.084,3.402,2.42,4.163l0.001,0.001V254.87z"/>
						<path style="fill-rule:evenodd;clip-rule:evenodd;fill:#363634;" d="M270.372,244.418
							c6.596,3.758,11.942,12.953,11.942,20.534c0,7.586-5.346,10.691-11.942,6.934v-1.532l0.001,0.001
							c0.502,0.3,0.927,0.151,1.062-0.369l0.694-2.692c0.094-0.364,0.316-0.544,0.641-0.517c0.324,0.026,0.66,0.252,0.966,0.65
							l2.257,2.936c0.438,0.569,0.968,0.796,1.323,0.567c0.356-0.229,0.428-0.845,0.18-1.536l-1.278-3.569
							c-0.172-0.483-0.192-0.912-0.059-1.235c0.135-0.322,0.386-0.449,0.725-0.363l2.501,0.631c0.483,0.123,0.807-0.213,0.807-0.836
							c0-0.625-0.323-1.347-0.807-1.804l-2.501-2.356c-0.339-0.318-0.59-0.745-0.724-1.229c-0.134-0.484-0.113-0.888,0.058-1.164
							l1.279-2.044c0.246-0.396,0.175-1.096-0.18-1.75c-0.356-0.655-0.885-1.061-1.323-1.016l-2.258,0.238
							c-0.306,0.032-0.641-0.143-0.966-0.503c-0.325-0.361-0.547-0.806-0.641-1.283l-0.693-3.521
							c-0.135-0.682-0.561-1.338-1.063-1.64l-0.001-0.001V244.418L270.372,244.418z M270.372,260.937
							c1.337,0.761,2.421,0.131,2.421-1.407c0-1.537-1.084-3.399-2.421-4.162V260.937z M270.371,244.417l0.002,0.001v1.531
							c-0.503-0.301-0.928-0.151-1.063,0.37l-0.694,2.692c-0.094,0.364-0.316,0.544-0.641,0.516
							c-0.324-0.027-0.659-0.252-0.965-0.65l-2.258-2.936c-0.438-0.57-0.967-0.797-1.323-0.567c-0.356,0.229-0.428,0.844-0.18,1.536
							l1.278,3.57c0.172,0.483,0.193,0.911,0.058,1.234c-0.135,0.322-0.385,0.449-0.724,0.364l-2.5-0.631
							c-0.485-0.123-0.809,0.212-0.809,0.838c0.001,0.625,0.324,1.347,0.809,1.803l2.5,2.355c0.339,0.318,0.59,0.746,0.724,1.229
							c0.134,0.483,0.114,0.887-0.058,1.164l-1.278,2.043c-0.247,0.396-0.175,1.098,0.181,1.753
							c0.356,0.653,0.885,1.059,1.322,1.013l2.258-0.238c0.306-0.032,0.642,0.142,0.966,0.504c0.324,0.361,0.546,0.806,0.64,1.283
							l0.694,3.52c0.135,0.682,0.56,1.338,1.063,1.639v1.532l-0.002-0.001c-6.592-3.754-11.94-12.951-11.94-20.537
							C258.431,243.766,263.779,240.662,270.371,244.417L270.371,244.417z M270.372,255.368L270.372,255.368
							c-1.336-0.762-2.42-0.132-2.42,1.406c0,1.538,1.085,3.401,2.42,4.163l0.001,0V255.368z"/>
					</g>
					<path style="fill-rule:evenodd;clip-rule:evenodd;fill:#F1ECE6;" d="M269.532,257.093l-31.243,18.029l2.087,1.18l30.335-17.504
						C271.448,258.373,270.309,256.645,269.532,257.093z"/>
					<path style="fill-rule:evenodd;clip-rule:evenodd;fill:#666666;" d="M388.831,170.637l-153.759,88.869l1.231,0.696
						l153.223-88.559C389.96,171.391,389.288,170.373,388.831,170.637z"/>
					<path style="fill-rule:evenodd;clip-rule:evenodd;fill:#666666;" d="M397.673,176.354l-154.814,89.478l1.231,0.696
						l154.278-89.169C398.802,177.109,398.131,176.09,397.673,176.354z"/>
					<path style="fill-rule:evenodd;clip-rule:evenodd;fill:#666666;" d="M403.701,187.03l-157.046,90.768l1.231,0.696
						l156.51-90.458C404.83,187.785,404.159,186.766,403.701,187.03z"/>
					<path style="fill-rule:evenodd;clip-rule:evenodd;fill:#666666;" d="M403.828,198.091l-156.265,90.317l1.231,0.696
						l155.729-90.007C404.957,198.846,404.286,197.827,403.828,198.091z"/>
					<g>
						<path style="fill-rule:evenodd;clip-rule:evenodd;fill:#161713;" d="M239.82,258.721c8.021,4.57,14.523,15.754,14.523,24.973
							c0,9.225-6.502,13.001-14.523,8.433v-1.863l0.001,0.001c0.611,0.365,1.128,0.184,1.291-0.449l0.844-3.274
							c0.113-0.442,0.384-0.662,0.779-0.629c0.395,0.032,0.802,0.307,1.175,0.792l2.745,3.57c0.532,0.692,1.176,0.968,1.609,0.689
							c0.432-0.278,0.52-1.028,0.219-1.868l-1.554-4.341c-0.209-0.587-0.234-1.109-0.071-1.502c0.163-0.392,0.469-0.546,0.881-0.442
							l3.041,0.768c0.589,0.149,0.982-0.259,0.982-1.018c0-0.76-0.393-1.639-0.982-2.194l-3.041-2.866
							c-0.412-0.387-0.718-0.907-0.88-1.494c-0.164-0.589-0.139-1.08,0.07-1.416l1.555-2.485c0.3-0.481,0.213-1.334-0.219-2.129
							c-0.432-0.797-1.076-1.29-1.609-1.235l-2.746,0.29c-0.373,0.039-0.78-0.173-1.175-0.612c-0.395-0.439-0.665-0.98-0.779-1.561
							l-0.843-4.281c-0.164-0.829-0.681-1.628-1.292-1.994l-0.001-0.001V258.721L239.82,258.721z M239.82,278.811
							c1.626,0.925,2.944,0.16,2.944-1.711c0-1.869-1.318-4.134-2.944-5.061V278.811z M239.817,258.72l0.002,0.001v1.862
							c-0.612-0.365-1.128-0.184-1.293,0.45l-0.844,3.274c-0.114,0.443-0.385,0.661-0.779,0.628
							c-0.394-0.032-0.802-0.307-1.174-0.79l-2.745-3.57c-0.532-0.693-1.177-0.969-1.609-0.69c-0.433,0.278-0.521,1.027-0.219,1.869
							l1.554,4.341c0.209,0.588,0.234,1.109,0.071,1.502c-0.163,0.392-0.469,0.546-0.88,0.443l-3.041-0.768
							c-0.589-0.149-0.983,0.258-0.983,1.019c0.001,0.76,0.395,1.638,0.983,2.193l3.041,2.864c0.411,0.387,0.717,0.908,0.88,1.495
							c0.164,0.587,0.138,1.079-0.071,1.416l-1.554,2.484c-0.301,0.482-0.213,1.335,0.22,2.132c0.433,0.794,1.076,1.288,1.608,1.232
							l2.745-0.289c0.372-0.039,0.781,0.173,1.175,0.612c0.395,0.439,0.665,0.98,0.778,1.561l0.844,4.281
							c0.164,0.83,0.681,1.627,1.293,1.994v1.863l-0.002-0.001c-8.017-4.566-14.52-15.75-14.52-24.977
							C225.297,257.929,231.801,254.153,239.817,258.72L239.817,258.72z M239.82,272.039L239.82,272.039
							c-1.624-0.927-2.944-0.161-2.944,1.709c0,1.87,1.319,4.137,2.943,5.063l0.001,0.001V272.039z"/>
						<path style="fill-rule:evenodd;clip-rule:evenodd;fill:#363634;" d="M238.778,259.327
							c8.021,4.571,14.523,15.754,14.523,24.974c0,9.226-6.502,13.001-14.523,8.433v-1.863l0.001,0.001
							c0.611,0.365,1.128,0.184,1.292-0.449l0.843-3.274c0.114-0.443,0.384-0.662,0.779-0.63c0.395,0.033,0.802,0.307,1.175,0.792
							l2.745,3.571c0.532,0.692,1.177,0.968,1.609,0.689c0.432-0.278,0.52-1.028,0.219-1.868l-1.554-4.34
							c-0.209-0.588-0.234-1.109-0.072-1.502c0.164-0.392,0.47-0.546,0.881-0.442l3.041,0.768c0.589,0.15,0.982-0.259,0.982-1.018
							c0-0.759-0.393-1.638-0.982-2.193l-3.041-2.866c-0.411-0.387-0.718-0.907-0.88-1.494c-0.164-0.588-0.139-1.08,0.071-1.416
							l1.555-2.486c0.3-0.481,0.213-1.333-0.219-2.128c-0.433-0.797-1.077-1.291-1.609-1.235l-2.746,0.29
							c-0.372,0.039-0.78-0.174-1.175-0.612c-0.395-0.439-0.665-0.98-0.779-1.56l-0.843-4.282c-0.164-0.83-0.681-1.627-1.292-1.994
							l-0.001-0.001V259.327L238.778,259.327z M238.778,279.417c1.626,0.926,2.944,0.16,2.944-1.711
							c0-1.869-1.319-4.134-2.944-5.061V279.417z M238.776,259.326l0.002,0.001v1.863c-0.611-0.366-1.128-0.184-1.293,0.449
							l-0.843,3.274c-0.114,0.443-0.385,0.661-0.779,0.628c-0.395-0.033-0.802-0.307-1.175-0.79l-2.745-3.571
							c-0.532-0.693-1.177-0.969-1.609-0.69c-0.433,0.278-0.52,1.027-0.219,1.868l1.555,4.341c0.209,0.588,0.234,1.108,0.07,1.501
							c-0.164,0.392-0.469,0.546-0.88,0.443l-3.04-0.768c-0.59-0.15-0.983,0.258-0.983,1.019c0.001,0.759,0.395,1.637,0.983,2.192
							l3.04,2.865c0.411,0.387,0.718,0.908,0.88,1.495c0.164,0.587,0.139,1.079-0.07,1.416l-1.555,2.485
							c-0.301,0.482-0.213,1.335,0.22,2.131c0.433,0.795,1.077,1.289,1.608,1.232l2.745-0.289c0.372-0.039,0.781,0.173,1.175,0.613
							c0.395,0.438,0.665,0.98,0.779,1.56l0.843,4.282c0.164,0.83,0.681,1.627,1.293,1.993v1.863l-0.002-0.001
							c-8.017-4.566-14.52-15.751-14.52-24.977C224.256,258.535,230.759,254.76,238.776,259.326L238.776,259.326z M238.778,272.645
							L238.778,272.645c-1.624-0.927-2.944-0.161-2.944,1.709c0,1.87,1.319,4.137,2.943,5.063l0.001,0.001V272.645z"/>
					</g>
					<g>
						<path style="fill-rule:evenodd;clip-rule:evenodd;fill:#F1ECE6;" d="M251.04,306.104
							c-2.812-16.738-13.158-34.764-19.299-38.308l-12.735-7.35l-2.366,1.364l2.318,18.293c0.6,4.731,2.573,8.517,6.488,11.235
							l23.276,16.16L251.04,306.104z"/>
						<path style="fill-rule:evenodd;clip-rule:evenodd;fill:#BCB5AD;" d="M248.721,307.497
							c-2.811-16.738-13.158-34.764-19.3-38.309l-12.783-7.379l-0.001,19.684c0,4.764,2.362,8.855,6.488,11.235L248.721,307.497z"/>
					</g>
				</g>
				<g>
					<path style="fill-rule:evenodd;clip-rule:evenodd;fill:#333333;" d="M286.203,149.851l23.706-13.438
						c0.659-0.373,1.436,0.039,1.728,0.916l0.585,1.757c0.292,0.878-0.008,1.9-0.667,2.273l-23.707,13.438
						c-0.659,0.373-1.436-0.039-1.728-0.916l-0.585-1.758C285.244,151.247,285.544,150.224,286.203,149.851z"/>
					
						<radialGradient id="SVGID_00000080201443151291873850000012687633584513398674_" cx="298.6213" cy="145.3985" r="12.4977" gradientUnits="userSpaceOnUse">
						<stop  offset="0" style="stop-color:#2AD6BC"/>
						<stop  offset="1" style="stop-color:#023D2D"/>
					</radialGradient>
					<path style="fill-rule:evenodd;clip-rule:evenodd;fill:url(#SVGID_00000080201443151291873850000012687633584513398674_);" d="
						M287.377,149.165l21.029-11.92c0.585-0.331,1.274,0.034,1.533,0.812l0.519,1.559c0.259,0.778-0.007,1.685-0.592,2.017
						l-21.029,11.92c-0.584,0.331-1.274-0.034-1.533-0.812l-0.519-1.559C286.526,150.403,286.792,149.496,287.377,149.165z"/>
				</g>
			</g>
		</g>
		<g>
			<g>
				<path style="opacity:0.5;fill-rule:evenodd;clip-rule:evenodd;fill:#8E6C43;" d="M30.739,213.294l127.081,73.654
					c16.453-4.76,35.64-15.163,43.588-24.501L75.517,189.678c-0.815-0.471-1.753-0.471-2.571-0.001L30.739,213.294z"/>
				<polygon style="fill-rule:evenodd;clip-rule:evenodd;fill:#181914;" points="41.298,187.372 118.757,231.527 118.731,238.289 
					41.298,193.926 				"/>
				<g>
					<polygon style="fill-rule:evenodd;clip-rule:evenodd;fill:#8F867B;" points="82.958,218.994 108.878,233.958 108.872,246.915 
						82.958,231.942 					"/>
					<polygon style="fill-rule:evenodd;clip-rule:evenodd;fill:#A39A8F;" points="82.958,218.994 108.878,233.958 120.382,227.314 
						94.465,212.351 					"/>
					<polygon style="fill-rule:evenodd;clip-rule:evenodd;fill:#7D756B;" points="108.878,246.915 108.878,233.958 120.382,227.314 
						120.368,240.249 					"/>
				</g>
				<g>
					<path style="fill-rule:evenodd;clip-rule:evenodd;fill:#363634;" d="M57.163,209.052l12.305,20.546l8.188-4.602
						c8.214-4.646-4.059-25.631-12.096-20.681L57.163,209.052z"/>
					<path style="fill-rule:evenodd;clip-rule:evenodd;fill:#161713;" d="M63.152,209.631c4.705,2.68,8.519,9.239,8.519,14.647
						c0,5.411-3.814,7.625-8.519,4.945c-4.702-2.678-8.516-9.237-8.516-14.649C54.636,209.167,58.451,206.953,63.152,209.631z"/>
					<path style="fill-rule:evenodd;clip-rule:evenodd;fill:#7D756B;" d="M63.153,211.815c3.656,2.083,6.62,7.18,6.62,11.383
						c0,4.206-2.964,5.926-6.62,3.843c-3.654-2.081-6.618-7.178-6.618-11.384C56.535,211.454,59.499,209.733,63.153,211.815z"/>
					<path style="fill-rule:evenodd;clip-rule:evenodd;fill:#BCB5AD;" d="M63.153,212.743c3.211,1.829,5.813,6.305,5.813,9.995
						c0,3.693-2.602,5.203-5.813,3.374c-3.208-1.827-5.811-6.303-5.811-9.996C57.342,212.426,59.945,210.915,63.153,212.743z"/>
					<path style="fill-rule:evenodd;clip-rule:evenodd;fill:#EDECEC;" d="M63.167,213.7c2.744,1.563,4.967,5.387,4.967,8.54
						c0,1.204-0.325,2.135-0.877,2.741c0.149-0.469,0.229-1.012,0.229-1.623c0-3.275-2.31-7.249-5.16-8.872
						c-1.299-0.74-2.487-0.864-3.394-0.468C59.806,212.877,61.375,212.679,63.167,213.7z"/>
				</g>
				<polygon style="fill-rule:evenodd;clip-rule:evenodd;fill:#9FAA20;" points="32.481,163.016 109.94,207.734 164.686,176.122 
					87.689,131.751 				"/>
				<polygon style="fill-rule:evenodd;clip-rule:evenodd;fill:#8B9615;" points="109.94,230.478 109.94,207.734 164.686,176.122 
					164.614,198.759 				"/>
				<polygon style="fill-rule:evenodd;clip-rule:evenodd;fill:#8B9615;" points="36.051,185.951 36.05,163.207 87.667,133.401 
					87.737,156.038 				"/>
				<polygon style="fill-rule:evenodd;clip-rule:evenodd;fill:#7D870B;" points="158.115,196.661 158.116,173.917 87.666,133.401 
					87.737,156.038 				"/>
				<polygon style="fill-rule:evenodd;clip-rule:evenodd;fill:#7D870B;" points="32.481,163.016 109.94,207.734 109.914,230.479 
					32.481,185.773 				"/>
				<path style="fill:#FFFFFF;" d="M65.369,195.966l-0.667-5.387v-2.146L65.677,189l1.549,11.117l-1.45-0.843l-0.244-1.964
					l-0.83-0.482v-1.249L65.369,195.966z M64.702,190.579l-0.018-0.143l-0.024-0.014l-0.626,4.768l0.668,0.388v1.249l-0.818-0.475
					l-0.222,1.694l-1.498-0.87l1.458-9.369l1.08,0.627V190.579z"/>
				<path style="fill:#FFFFFF;" d="M72.548,202.134c0,0.743-0.18,1.221-0.543,1.433c-0.332,0.195-0.876,0.089-1.631-0.318v-1.198
					c0.173,0.051,0.307,0.044,0.398-0.018c0.159-0.11,0.238-0.335,0.238-0.674v-0.691c-0.097,0.223-0.246,0.333-0.444,0.331
					c-0.059,0-0.124-0.007-0.193-0.023v-1.083c0.234,0.135,0.399,0.129,0.494-0.019c0.095-0.147,0.142-0.488,0.142-1.017v-2.851
					c0-0.406-0.049-0.746-0.148-1.019c-0.094-0.261-0.257-0.462-0.488-0.607v-1.15c0.313,0.309,0.526,0.691,0.636,1.152v-0.773
					l1.538,0.893V202.134z M70.374,203.249l-0.204-0.116c-0.86-0.5-1.547-1.105-2.063-1.819l0.539-0.658
					c0.462,0.563,0.892,0.96,1.29,1.192c0.167,0.097,0.312,0.165,0.437,0.202V203.249L70.374,203.249z M70.374,200.975v-1.083
					l-0.006-0.004c-0.238-0.138-0.402-0.347-0.493-0.627c-0.091-0.279-0.137-0.656-0.137-1.132v-2.869
					c0-0.39,0.038-0.676,0.111-0.855c0.073-0.18,0.236-0.196,0.488-0.049l0.037,0.023v-1.15c-0.148-0.147-0.319-0.279-0.513-0.392
					c-0.008-0.004-0.016-0.009-0.024-0.014c-1.1-0.639-1.648-0.082-1.648,1.671v2.804c0,0.755,0.117,1.426,0.351,2.015
					c0.234,0.587,0.656,1.06,1.262,1.412C70.021,200.852,70.21,200.936,70.374,200.975z"/>
				<path style="fill:#FFFFFF;" d="M77.07,197.024c0.016,0.009,0.024,0.339,0.024,0.989l-0.006,0.322
					c-0.309-0.179-0.615-0.306-0.912-0.374c-0.299-0.068-0.493-0.032-0.587,0.108v6.907l-1.549-0.9v-8.708l1.549,0.9v0.97
					c0.102-0.282,0.278-0.442,0.531-0.484C76.375,196.713,76.692,196.804,77.07,197.024z"/>
				<path style="fill:#FFFFFF;" d="M80.09,206.452c0.239,0.139,0.402,0.129,0.489-0.033c0.087-0.159,0.131-0.449,0.131-0.867v-3.896
					c0-0.426-0.043-0.77-0.132-1.034c-0.09-0.266-0.254-0.466-0.494-0.605v-1.242c1.451,0.842,2.177,2.194,2.177,4.056v3.256
					c0,1.452-0.374,2.127-1.121,2.025c-0.285-0.036-0.636-0.177-1.05-0.417l-0.006-0.003v-1.242L80.09,206.452z M80.084,200.017
					c-0.24-0.139-0.404-0.13-0.493,0.028c-0.089,0.16-0.133,0.454-0.133,0.884v3.895c0,0.638,0.103,1.09,0.313,1.355
					c0.084,0.105,0.187,0.195,0.313,0.269v1.242c-0.817-0.476-1.383-1.051-1.7-1.725c-0.319-0.676-0.478-1.48-0.478-2.41v-3.256
					c0-1.862,0.725-2.37,2.177-1.526V200.017z"/>
				<polygon style="fill-rule:evenodd;clip-rule:evenodd;fill:#9FAA20;" points="34.366,161.948 111.885,206.611 109.914,207.721 
					32.481,163.016 				"/>
				<polygon style="fill-rule:evenodd;clip-rule:evenodd;fill:#9FAA20;" points="162.8,175.055 107.981,206.603 109.939,207.721 
					164.686,176.122 				"/>
				<polygon style="fill-rule:evenodd;clip-rule:evenodd;fill:#9FAA20;" points="87.689,131.751 32.482,163.016 34.439,164.135 
					89.575,132.818 				"/>
				<polygon style="fill-rule:evenodd;clip-rule:evenodd;fill:#9FAA20;" points="87.694,131.757 165.212,176.42 163.241,177.53 
					85.808,132.825 				"/>
				<path style="fill-rule:evenodd;clip-rule:evenodd;fill:#EDA705;" d="M45.467,168.344c12.957-12.157,24.998-18.821,42.282-21.364
					c19.17,0.246,43.163,13.786,64.237,30.111l-42.046,28.392L45.467,168.344z"/>
				<g>
					<polygon style="fill-rule:evenodd;clip-rule:evenodd;fill:#161713;" points="134.645,253.088 138.413,262.694 150.605,255.649 
											"/>
					<g>
						<path style="fill-rule:evenodd;clip-rule:evenodd;fill:#EDECEC;" d="M150.007,265.674l2.403,4.013l10.642-6.018
							c1.604-0.908-0.793-5.006-2.362-4.039L150.007,265.674z"/>
						<path style="fill-rule:evenodd;clip-rule:evenodd;fill:#363634;" d="M141.661,259.266l12.305,20.546l8.188-4.602
							c8.214-4.646-4.059-25.631-12.096-20.68L141.661,259.266z"/>
						<path style="fill-rule:evenodd;clip-rule:evenodd;fill:#161713;" d="M147.65,259.845c4.704,2.68,8.519,9.239,8.519,14.647
							c0,5.411-3.814,7.625-8.519,4.946c-4.702-2.679-8.516-9.238-8.516-14.65C139.134,259.381,142.947,257.166,147.65,259.845z"/>
						<path style="fill-rule:evenodd;clip-rule:evenodd;fill:#7D756B;" d="M147.65,262.028c3.657,2.083,6.621,7.18,6.621,11.383
							c0,4.206-2.964,5.926-6.621,3.844c-3.654-2.082-6.618-7.179-6.618-11.385C141.032,261.667,143.996,259.947,147.65,262.028z"/>
						<path style="fill-rule:evenodd;clip-rule:evenodd;fill:#BCB5AD;" d="M147.65,262.956c3.21,1.829,5.813,6.305,5.813,9.995
							c0,3.692-2.603,5.203-5.813,3.375c-3.209-1.828-5.811-6.304-5.811-9.996C141.839,262.64,144.442,261.129,147.65,262.956z"/>
						<path style="fill-rule:evenodd;clip-rule:evenodd;fill:#EDECEC;" d="M147.665,263.914c2.743,1.563,4.967,5.387,4.967,8.54
							c0,1.204-0.325,2.135-0.878,2.74c0.149-0.469,0.229-1.012,0.229-1.623c0-3.275-2.31-7.249-5.16-8.872
							c-1.299-0.74-2.486-0.864-3.393-0.467C144.302,263.091,145.872,262.893,147.665,263.914z"/>
					</g>
					<path style="fill-rule:evenodd;clip-rule:evenodd;fill:#BCB5AD;" d="M203.228,251.55c0-19.329,0.001-57.992-21.654-70.49
						l-18.619-10.708L129.039,215c18.727,18.908,30.264,36.61,32.077,60.833C176.492,270.948,194.529,260.953,203.228,251.55z"/>
					<path style="fill-rule:evenodd;clip-rule:evenodd;fill:#F1ECE6;" d="M117.421,194.369l23.918,12.059l42.121-24.28
						l-21.251-12.225c-0.815-0.471-1.752-0.471-2.57-0.001L117.421,194.369z"/>
					<path style="fill-rule:evenodd;clip-rule:evenodd;fill:#A39A8F;" d="M161.117,275.832c0-19.329-0.041-57.921-21.654-70.49
						l-19.277-11.093c-0.812-0.468-1.743-0.472-2.559-0.009c-1.024,0.582-1.307,1.512-1.307,2.601v53.118l22.061,12.745
						c0.729-5.421,5.106-7.902,10.382-4.897c5.328,3.035,9.902,9.856,10.386,16.888L161.117,275.832z"/>
					
						<linearGradient id="SVGID_00000162312086867304300010000016768604714386455991_" gradientUnits="userSpaceOnUse" x1="200.0153" y1="266.3141" x2="160.9828" y2="198.708">
						<stop  offset="0" style="stop-color:#272A23"/>
						<stop  offset="0.56" style="stop-color:#424641"/>
						<stop  offset="0.69" style="stop-color:#B2B2B2"/>
						<stop  offset="0.81" style="stop-color:#272A23"/>
						<stop  offset="1" style="stop-color:#272A23"/>
					</linearGradient>
					<path style="fill-rule:evenodd;clip-rule:evenodd;fill:url(#SVGID_00000162312086867304300010000016768604714386455991_);" d="
						M149.228,239.693v-18.209l45.294-26.028c5.772,11.299,7.717,26.008,8.372,38.795c-8.874,16.052-26.723,25.853-42.115,24.194
						C158.726,251.295,153.191,246.09,149.228,239.693z"/>
					<path style="fill-rule:evenodd;clip-rule:evenodd;fill:#181914;" d="M152.225,219.377l-26.57-15.271
						c-0.552,12.374,5.731,37.161,17.378,43.946l17.747,10.394C160.128,245.471,158.174,230.786,152.225,219.377z"/>
					<g>
						<g>
							<path style="fill-rule:evenodd;clip-rule:evenodd;fill:#8F8F8F;" d="M181.384,261.82c-0.87,0.496-1.576,1.709-1.576,2.709
								c0,1.001,0.706,1.41,1.576,0.915c0.87-0.495,1.575-1.709,1.575-2.709C182.959,261.734,182.254,261.325,181.384,261.82z"/>
							<path style="fill-rule:evenodd;clip-rule:evenodd;fill:#FFFFFF;" d="M181.384,262.185c-0.695,0.396-1.258,1.365-1.258,2.164
								c0,0.799,0.563,1.126,1.258,0.73c0.694-0.396,1.258-1.364,1.258-2.164C182.642,262.117,182.079,261.789,181.384,262.185z"/>
						</g>
						<g>
							<path style="fill-rule:evenodd;clip-rule:evenodd;fill:#8F8F8F;" d="M185.021,259.746c-0.87,0.496-1.576,1.709-1.576,2.709
								c0,1.001,0.706,1.41,1.576,0.915c0.87-0.495,1.575-1.709,1.575-2.709C186.595,259.66,185.89,259.251,185.021,259.746z"/>
							<path style="fill-rule:evenodd;clip-rule:evenodd;fill:#FFFFFF;" d="M185.021,260.111c-0.695,0.396-1.258,1.365-1.258,2.164
								c0,0.799,0.563,1.127,1.258,0.73c0.695-0.396,1.258-1.365,1.258-2.164C186.278,260.042,185.715,259.715,185.021,260.111z"/>
						</g>
						<g>
							<path style="fill-rule:evenodd;clip-rule:evenodd;fill:#8F8F8F;" d="M188.657,257.672c-0.87,0.496-1.576,1.709-1.576,2.709
								c0,1,0.706,1.411,1.576,0.914c0.869-0.495,1.575-1.708,1.575-2.709C190.232,257.586,189.527,257.177,188.657,257.672z"/>
							<path style="fill-rule:evenodd;clip-rule:evenodd;fill:#FFFFFF;" d="M188.657,258.036c-0.695,0.396-1.258,1.365-1.258,2.164
								c0,0.799,0.563,1.127,1.258,0.73c0.694-0.396,1.258-1.364,1.258-2.164C189.915,257.968,189.352,257.641,188.657,258.036z"/>
						</g>
					</g>
					<path style="fill-rule:evenodd;clip-rule:evenodd;fill:#4C4C4C;" d="M163.949,258.625c0.52,0.435,0.926,0.919,1.189,1.458
						c1.964,3.947,3.752,8.116,5.311,12.298c-3.153,1.321-6.295,2.486-9.332,3.451c0-4.837-0.005-10.882-0.347-17.421l0.01,0.035
						C161.826,258.558,162.883,258.616,163.949,258.625z"/>
					<g>
						<path style="fill-rule:evenodd;clip-rule:evenodd;fill:#8F8F8F;" d="M165.878,267.685c-1.156,0.659-2.094,2.271-2.094,3.599
							c0,1.33,0.937,1.874,2.094,1.216c1.155-0.659,2.093-2.271,2.093-3.6C167.971,267.571,167.034,267.027,165.878,267.685z"/>
						<path style="fill-rule:evenodd;clip-rule:evenodd;fill:#FFFFFF;" d="M165.878,268.17c-0.924,0.526-1.672,1.813-1.672,2.874
							c0,1.062,0.748,1.497,1.672,0.971c0.923-0.526,1.671-1.813,1.671-2.876C167.55,268.079,166.801,267.644,165.878,268.17z"/>
					</g>
					<g>
						<path style="fill-rule:evenodd;clip-rule:evenodd;fill:#CC9933;" d="M163.927,262.748c-1.156,0.659-2.093,2.27-2.093,3.599
							c0,1.33,0.937,1.874,2.093,1.215c1.156-0.658,2.093-2.27,2.093-3.599C166.02,262.634,165.083,262.09,163.927,262.748z"/>
						<path style="fill-rule:evenodd;clip-rule:evenodd;fill:#FFCC00;" d="M163.927,263.232c-0.923,0.526-1.672,1.814-1.672,2.875
							c0,1.062,0.749,1.497,1.672,0.97c0.923-0.526,1.671-1.813,1.671-2.875C165.598,263.142,164.85,262.707,163.927,263.232z"/>
					</g>
					<path style="fill-rule:evenodd;clip-rule:evenodd;fill:#4C4C4C;" d="M201.654,236.361c-0.542,2.181-1.071,4.065-1.291,5.366
						c-0.529,3.122-0.944,8.635-1.204,13.704c1.51-1.295,2.877-2.593,4.069-3.881c0-4.804-0.001-10.803-0.334-17.297
						C202.499,234.968,202.085,235.67,201.654,236.361z"/>
					<g>
						<path style="fill-rule:evenodd;clip-rule:evenodd;fill:#8F8F8F;" d="M201.312,247.735c-0.682,0.659-1.236,2.271-1.236,3.599
							c0,1.33,0.554,1.874,1.236,1.215c0.682-0.658,1.236-2.27,1.236-3.6C202.548,247.621,201.994,247.077,201.312,247.735z"/>
						<path style="fill-rule:evenodd;clip-rule:evenodd;fill:#FFFFFF;" d="M201.312,248.219c-0.545,0.526-0.988,1.813-0.988,2.875
							c0,1.062,0.442,1.496,0.988,0.97c0.545-0.525,0.987-1.813,0.987-2.875S201.857,247.694,201.312,248.219z"/>
					</g>
					<g>
						<path style="fill-rule:evenodd;clip-rule:evenodd;fill:#CC9933;" d="M201.765,240.923c-0.683,0.658-1.236,2.27-1.236,3.6
							c0,1.33,0.553,1.874,1.236,1.215c0.683-0.658,1.236-2.27,1.236-3.599C203.001,240.809,202.448,240.265,201.765,240.923z"/>
						<path style="fill-rule:evenodd;clip-rule:evenodd;fill:#FFCC00;" d="M201.765,241.408c-0.546,0.526-0.988,1.813-0.988,2.875
							c0,1.062,0.442,1.496,0.988,0.971c0.545-0.526,0.987-1.813,0.987-2.875C202.752,241.317,202.311,240.882,201.765,241.408z"/>
					</g>
					<path style="fill-rule:evenodd;clip-rule:evenodd;fill:#3C3C3A;" d="M151.197,220.189l-23.815-13.688
						c13.744,30.368,15.27,38.391,31.667,49.549C158.452,244.14,156.658,230.661,151.197,220.189z"/>
					<g>
						<polygon style="fill-rule:evenodd;clip-rule:evenodd;fill:#BCB5AD;" points="144.696,198.936 142.175,196.187 
							151.507,190.784 154.026,193.531 						"/>
						<polygon style="fill-rule:evenodd;clip-rule:evenodd;fill:#A39A8F;" points="132.931,190.89 142.175,196.187 144.697,198.936 
							132.925,192.3 						"/>
						<polygon style="fill-rule:evenodd;clip-rule:evenodd;fill:#F1ECE6;" points="132.931,190.89 142.174,196.187 151.507,190.784 
							142.273,185.479 						"/>
					</g>
					<g>
						<polygon style="fill-rule:evenodd;clip-rule:evenodd;fill:#BCB5AD;" points="161.717,189.302 159.196,186.553 168.528,181.15 
							171.047,183.898 						"/>
						<polygon style="fill-rule:evenodd;clip-rule:evenodd;fill:#A39A8F;" points="149.952,181.256 159.196,186.553 
							161.718,189.301 149.946,182.666 						"/>
						<polygon style="fill-rule:evenodd;clip-rule:evenodd;fill:#F1ECE6;" points="149.952,181.256 159.196,186.553 168.528,181.15 
							159.295,175.846 						"/>
					</g>
				</g>
				<path style="fill-rule:evenodd;clip-rule:evenodd;fill:#FFCC00;" d="M100.009,148.758l0.23,0.002
					c13.167,3.356,27.617,11.147,41.398,20.725c0.053,0.46,0.085,0.924,0.085,1.391c0,12.215-18.68,22.118-41.713,22.118
					c-4.897,0-9.593-0.45-13.958-1.272l-26.375-15.193c-0.898-1.805-1.38-3.699-1.38-5.653
					C58.296,158.662,76.976,148.758,100.009,148.758z"/>
			</g>
			<defs>
				<filter id="Adobe_OpacityMaskFilter" filterUnits="userSpaceOnUse" x="166.462" y="195.572" width="36.361" height="38.409">
					<feFlood  style="flood-color:white;flood-opacity:1" result="back"/>
					<feBlend  in="SourceGraphic" in2="back" mode="normal"/>
				</filter>
			</defs>
			
				<mask maskUnits="userSpaceOnUse" x="166.462" y="195.572" width="36.361" height="38.409" id="SVGID_00000088123012703699848800000016104749288683306148_">
				<g style="filter:url(#Adobe_OpacityMaskFilter);">
					<defs>
						
							<filter id="Adobe_OpacityMaskFilter_00000031167746139397538090000012263857806494175914_" filterUnits="userSpaceOnUse" x="166.462" y="195.572" width="36.361" height="38.409">
							<feFlood  style="flood-color:white;flood-opacity:1" result="back"/>
							<feBlend  in="SourceGraphic" in2="back" mode="normal"/>
						</filter>
					</defs>
					
						<mask maskUnits="userSpaceOnUse" x="166.462" y="195.572" width="36.361" height="38.409" id="SVGID_00000088123012703699848800000016104749288683306148_">
						<g style="filter:url(#Adobe_OpacityMaskFilter_00000031167746139397538090000012263857806494175914_);">
						</g>
					</mask>
					
						<linearGradient id="SVGID_00000177448789540048007430000008722594317443009975_" gradientUnits="userSpaceOnUse" x1="210.1735" y1="236.956" x2="176.9634" y2="199.7701">
						<stop  offset="0" style="stop-color:#FFFFFF"/>
						<stop  offset="0.0796" style="stop-color:#FBFBFB"/>
						<stop  offset="0.156" style="stop-color:#F0F0F0"/>
						<stop  offset="0.231" style="stop-color:#DCDCDC"/>
						<stop  offset="0.3053" style="stop-color:#C1C1C1"/>
						<stop  offset="0.379" style="stop-color:#9E9E9E"/>
						<stop  offset="0.4523" style="stop-color:#737373"/>
						<stop  offset="0.5252" style="stop-color:#404040"/>
						<stop  offset="0.5963" style="stop-color:#070707"/>
						<stop  offset="0.6041" style="stop-color:#000000"/>
					</linearGradient>
					
						<path style="mask:url(#SVGID_00000088123012703699848800000016104749288683306148_);fill-rule:evenodd;clip-rule:evenodd;fill:url(#SVGID_00000177448789540048007430000008722594317443009975_);" d="
						M202.822,233.981c-0.703-12.745-2.695-27.223-8.359-38.409l-28.002,16.232L202.822,233.981z"/>
				</g>
			</mask>
			<g>
				<defs>
					
						<filter id="Adobe_OpacityMaskFilter_00000152968540412098452130000016713083249410412432_" filterUnits="userSpaceOnUse" x="166.462" y="195.572" width="36.361" height="38.409">
						<feFlood  style="flood-color:white;flood-opacity:1" result="back"/>
						<feBlend  in="SourceGraphic" in2="back" mode="normal"/>
					</filter>
				</defs>
				
					<mask maskUnits="userSpaceOnUse" x="166.462" y="195.572" width="36.361" height="38.409" id="SVGID_00000029755735733248946320000008833639648651810467_">
					<g style="filter:url(#Adobe_OpacityMaskFilter_00000152968540412098452130000016713083249410412432_);">
						<defs>
							
								<filter id="Adobe_OpacityMaskFilter_00000041974579110191663630000013156236520733705138_" filterUnits="userSpaceOnUse" x="166.462" y="195.572" width="36.361" height="38.409">
								<feFlood  style="flood-color:white;flood-opacity:1" result="back"/>
								<feBlend  in="SourceGraphic" in2="back" mode="normal"/>
							</filter>
						</defs>
						
							<mask maskUnits="userSpaceOnUse" x="166.462" y="195.572" width="36.361" height="38.409" id="SVGID_00000029755735733248946320000008833639648651810467_">
							<g style="filter:url(#Adobe_OpacityMaskFilter_00000041974579110191663630000013156236520733705138_);">
							</g>
						</mask>
						
							<linearGradient id="SVGID_00000015315397491292479700000010481876574971535028_" gradientUnits="userSpaceOnUse" x1="199.1696" y1="236.0898" x2="180.4483" y2="203.6637">
							<stop  offset="0" style="stop-color:#FFFFFF"/>
							<stop  offset="0.0955" style="stop-color:#FBFBFB"/>
							<stop  offset="0.1871" style="stop-color:#F0F0F0"/>
							<stop  offset="0.2772" style="stop-color:#DCDCDC"/>
							<stop  offset="0.3662" style="stop-color:#C1C1C1"/>
							<stop  offset="0.4546" style="stop-color:#9E9E9E"/>
							<stop  offset="0.5425" style="stop-color:#737373"/>
							<stop  offset="0.6301" style="stop-color:#404040"/>
							<stop  offset="0.7153" style="stop-color:#070707"/>
							<stop  offset="0.7247" style="stop-color:#000000"/>
						</linearGradient>
						
							<path style="mask:url(#SVGID_00000029755735733248946320000008833639648651810467_);fill-rule:evenodd;clip-rule:evenodd;fill:url(#SVGID_00000015315397491292479700000010481876574971535028_);" d="
							M202.822,233.981c-0.703-12.745-2.695-27.223-8.359-38.409l-28.002,16.232L202.822,233.981z"/>
					</g>
				</mask>
				
					<linearGradient id="SVGID_00000181055551718680413980000001065491628554516100_" gradientUnits="userSpaceOnUse" x1="199.1696" y1="236.0898" x2="180.4483" y2="203.6637">
					<stop  offset="0" style="stop-color:#8C5D25"/>
					<stop  offset="0.1782" style="stop-color:#885C27"/>
					<stop  offset="0.3488" style="stop-color:#7D582D"/>
					<stop  offset="0.5164" style="stop-color:#695237"/>
					<stop  offset="0.6813" style="stop-color:#4E4946"/>
					<stop  offset="0.7247" style="stop-color:#46464A"/>
				</linearGradient>
				<path style="fill-rule:evenodd;clip-rule:evenodd;fill:url(#SVGID_00000181055551718680413980000001065491628554516100_);" d="
					M202.822,233.981c-0.703-12.745-2.695-27.223-8.359-38.409l-28.002,16.232L202.822,233.981z"/>
			</g>
		</g>
		<g>
			<polygon style="fill-rule:evenodd;clip-rule:evenodd;fill:#595757;" points="115.265,134.106 119.634,128.183 108.167,121.569 
				103.761,127.561 			"/>
			<polygon style="fill-rule:evenodd;clip-rule:evenodd;fill:#333333;" points="119.647,128.202 119.634,119.384 112.623,128.958 
				115.277,134.135 			"/>
			<polygon style="fill-rule:evenodd;clip-rule:evenodd;fill:#333333;" points="240.496,136.506 240.496,127.687 119.638,119.385 
				119.638,128.213 			"/>
			<polygon style="fill-rule:evenodd;clip-rule:evenodd;fill:#666666;" points="119.638,119.385 240.496,127.687 229.783,121.354 
				108.167,112.769 			"/>
			<polygon style="fill-rule:evenodd;clip-rule:evenodd;fill:#333333;" points="108.151,121.638 108.138,112.82 101.126,122.393 
				103.78,127.571 			"/>
			<polygon style="fill-rule:evenodd;clip-rule:evenodd;fill:#858585;" points="112.623,128.958 119.634,119.384 108.167,112.769 
				101.119,122.412 			"/>
			<path style="fill-rule:evenodd;clip-rule:evenodd;fill:#EDA705;" d="M114.208,132.049c-4.617,12.191-6.041,26.906-4.558,43.923
				c-5.924-4.905-13.296-9.722-21.294-11.859c2.957-14.391,7.925-25.758,17.317-39.111l6.951,3.955L114.208,132.049z"/>
		</g>
	</g>
	<g>
		<path style="fill-rule:evenodd;clip-rule:evenodd;fill:#ECA604;" d="M396.077,252.012
			c-0.185,55.961-76.738,101.306-171.109,101.306c-16.344,0-32.151-1.363-47.122-3.903v-41.578h71.829l96.593-55.912V212.96h49.813
			v38.848v0.204H396.077z"/>
		<path style="fill-rule:evenodd;clip-rule:evenodd;fill:#FFCC00;" d="M390.609,184.836c3.569,8.163,5.472,16.725,5.472,25.549
			c0,56.055-76.628,101.51-171.114,101.51c-16.344,0-32.151-1.363-47.122-3.903L390.609,184.836z"/>
	</g>
</g>
</svg>
